<svg xmlns="http://www.w3.org/2000/svg" width="196" height="57" viewBox="0 0 196 57">
  <g id="evo3" transform="translate(2 -3.5)">
    <rect id="Прямоугольник_1849" data-name="Прямоугольник 1849" width="196" height="57" rx="5" transform="translate(-2 3.5)" fill="#1e1f2e"/>
    <g id="appgallery" transform="translate(10.255 7.946)">
      <g id="Сгруппировать_13132" data-name="Сгруппировать 13132" transform="translate(3.54 4.85)">
        <path id="Контур_13942" data-name="Контур 13942" d="M32.189,40.3H10.568A7.045,7.045,0,0,1,3.54,33.271V11.878A7.045,7.045,0,0,1,10.568,4.85H32.2a7.045,7.045,0,0,1,7.028,7.028V33.271A7.074,7.074,0,0,1,32.189,40.3Z" transform="translate(-3.54 -4.85)" fill="#c42639"/>
        <g id="Сгруппировать_13131" data-name="Сгруппировать 13131" transform="translate(3.775 5.81)">
          <path id="Контур_13943" data-name="Контур 13943" d="M9.493,18.263h.964V23H9.493V21.075H7.324V23H6.36V18.263h.964v1.914H9.493ZM14.9,20.981c0,.763-.388,1.178-1.071,1.178s-1.084-.428-1.084-1.218V18.263h-.964v2.7a1.875,1.875,0,0,0,2.035,2.088,1.9,1.9,0,0,0,2.048-2.129V18.263H14.9v2.718Zm11.1.535-1.071-3.253h-.79l-1.071,3.253-1.044-3.253H21.006l1.647,4.726h.79l1.071-3.106,1.071,3.106h.8l1.647-4.726h-.991Zm3.762-.549H31.5v-.857h-1.74v-.964h2.53V18.29H28.81v4.726h3.574v-.857H29.761Zm3.775-2.7v4.726h.95V18.263Zm-14.244.027,2.062,4.7h-1L19.921,22H17.753l-.027.067h0l-.4.91h-.977l2.088-4.726h.843Zm.228,2.758h0l-.683-1.58-.683,1.58h0l-.04.107H19.56Z" transform="translate(-6.36 -6.121)" fill="#fff"/>
          <path id="Контур_13944" data-name="Контур 13944" d="M18.465,15.335a6.293,6.293,0,0,1-6.305-6.1l.95-.04a5.358,5.358,0,0,0,10.71,0l.95.04A6.311,6.311,0,0,1,18.465,15.335Z" transform="translate(-4.395 -9.19)" fill="#fff"/>
        </g>
      </g>
      <g id="Сгруппировать_13134" data-name="Сгруппировать 13134" transform="translate(49.78 5.078)">
        <path id="Контур_13945" data-name="Контур 13945" d="M68.328,24.722c0-1.084-.027-2.062-.094-2.932l-.013-.241h2.4l.04.187c.067.388.12.736.147,1.058a6.868,6.868,0,0,1,1.446-.977,4.858,4.858,0,0,1,2.2-.509,4.719,4.719,0,0,1,2.41.656,4.655,4.655,0,0,1,1.781,2.075,8.344,8.344,0,0,1,.669,3.548,8.939,8.939,0,0,1-.71,3.708,5.34,5.34,0,0,1-2.062,2.4,5.8,5.8,0,0,1-3.119.83,8.16,8.16,0,0,1-1.513-.147,6.6,6.6,0,0,1-1.017-.268V39.18l-2.57.295V24.722Zm2.57,7.243a4.18,4.18,0,0,0,.977.308,5.627,5.627,0,0,0,1.245.134,3.091,3.091,0,0,0,2.651-1.178,5.893,5.893,0,0,0,.91-3.561,5.243,5.243,0,0,0-.776-3.226,2.412,2.412,0,0,0-1.995-.964A4.19,4.19,0,0,0,70.9,24.936ZM55.423,24.722c0-1.071-.027-2.062-.094-2.932l-.013-.241H57.7l.04.187c.067.388.12.736.147,1.058a6.868,6.868,0,0,1,1.446-.977,4.858,4.858,0,0,1,2.2-.509,4.719,4.719,0,0,1,2.41.656,4.655,4.655,0,0,1,1.781,2.075,8.344,8.344,0,0,1,.669,3.548,8.938,8.938,0,0,1-.71,3.708,5.4,5.4,0,0,1-2.048,2.4,5.837,5.837,0,0,1-3.119.83A8.16,8.16,0,0,1,59,34.374a6.6,6.6,0,0,1-1.017-.268V39.18l-2.57.295V24.722Zm2.57,7.243a4.18,4.18,0,0,0,.977.308,5.627,5.627,0,0,0,1.245.134,3.091,3.091,0,0,0,2.651-1.178,5.893,5.893,0,0,0,.91-3.561A5.243,5.243,0,0,0,63,24.441a2.412,2.412,0,0,0-1.995-.964,4.19,4.19,0,0,0-3.012,1.459v7.028Zm88.021,7.47A6.153,6.153,0,0,1,143.9,39.1l-.187-.067.509-2.062.228.067c.161.04.375.094.683.147a4.386,4.386,0,0,0,.79.08,2.066,2.066,0,0,0,1.58-.669,6.163,6.163,0,0,0,1.218-2.062l.214-.522-4.712-12.464h2.771l2.637,7.51q.422,1.225.643,2.048c.2-.629.4-1.285.629-1.941l2.611-7.617H156.2l-4.833,12.919a14.33,14.33,0,0,1-1.325,2.785,4.98,4.98,0,0,1-1.673,1.633A4.826,4.826,0,0,1,146.014,39.434Zm-17.537-4.927a6.31,6.31,0,0,1-3.24-.776,4.962,4.962,0,0,1-2.035-2.249,8.09,8.09,0,0,1-.683-3.467,8.448,8.448,0,0,1,.71-3.588,5.29,5.29,0,0,1,2.008-2.329,5.462,5.462,0,0,1,2.945-.8,4.845,4.845,0,0,1,2.878.83,5.069,5.069,0,0,1,1.714,2.169,7.548,7.548,0,0,1,.549,2.878v1.017H125.13a4.757,4.757,0,0,0,.977,3.066,3.543,3.543,0,0,0,2.785,1.071,7.989,7.989,0,0,0,3.374-.763l.228-.107.629,1.941-.174.094a9.221,9.221,0,0,1-2.008.736A9.594,9.594,0,0,1,128.477,34.508Zm2.249-8.233a3.827,3.827,0,0,0-.79-2.169,2.293,2.293,0,0,0-1.834-.776,2.477,2.477,0,0,0-1.9.79,4.079,4.079,0,0,0-.95,2.142h5.475Zm-10.951,8.233a2.736,2.736,0,0,1-2.129-.8,3.467,3.467,0,0,1-.736-2.4V16.3l2.557-.281V30.947a1.917,1.917,0,0,0,.214,1.084.835.835,0,0,0,.71.268,2.121,2.121,0,0,0,.589-.107l.241-.067.361,2.048-.174.067a4.374,4.374,0,0,1-.8.2A6.461,6.461,0,0,1,119.775,34.508Zm-6.493,0a2.736,2.736,0,0,1-2.129-.8,3.467,3.467,0,0,1-.736-2.4V16.3l2.557-.281V30.947a1.917,1.917,0,0,0,.214,1.084.835.835,0,0,0,.71.268,2.121,2.121,0,0,0,.589-.107l.241-.067.361,2.048-.174.067a4.374,4.374,0,0,1-.8.2A6.46,6.46,0,0,1,113.282,34.508Zm-12.276,0A4.65,4.65,0,0,1,99,34.079a3.389,3.389,0,0,1-1.432-1.312,4.013,4.013,0,0,1-.522-2.1,3.72,3.72,0,0,1,1.366-3.012,6.875,6.875,0,0,1,4.4-1.125,17.188,17.188,0,0,1,2.142.134v-.054a3.587,3.587,0,0,0-.7-2.5,2.681,2.681,0,0,0-1.995-.7,7.045,7.045,0,0,0-1.847.254,9.8,9.8,0,0,0-1.714.616l-.254.12-.469-2.062.161-.08a9.7,9.7,0,0,1,1.9-.643,10.475,10.475,0,0,1,2.53-.295,6.239,6.239,0,0,1,2.624.509,3.642,3.642,0,0,1,1.714,1.781,7.513,7.513,0,0,1,.6,3.28v4.846c0,.509.027,1.272.094,2.3l.013.241h-2.37l-.04-.174a8.784,8.784,0,0,1-.161-1.218,5.753,5.753,0,0,1-1.486,1.031A5.655,5.655,0,0,1,101.006,34.508Zm2.048-6.172a4.289,4.289,0,0,0-2.691.616,1.957,1.957,0,0,0-.71,1.606,1.729,1.729,0,0,0,.5,1.392,2.007,2.007,0,0,0,1.379.442,4.428,4.428,0,0,0,1.955-.482,4.8,4.8,0,0,0,1.486-1.111V28.443C104.259,28.376,103.63,28.336,103.055,28.336ZM89.011,34.508a8.674,8.674,0,0,1-4.391-1.071A7.057,7.057,0,0,1,81.8,30.425a9.977,9.977,0,0,1-.964-4.5,9.683,9.683,0,0,1,1.125-4.819,7.43,7.43,0,0,1,3.092-3.039,9.374,9.374,0,0,1,4.4-1.031,11.067,11.067,0,0,1,2.771.335,12.211,12.211,0,0,1,2.436.9l.187.094L94,20.5l-.228-.107a9.719,9.719,0,0,0-4.257-1.1,6.225,6.225,0,0,0-3.119.763A5.314,5.314,0,0,0,84.3,22.3a7.878,7.878,0,0,0-.763,3.615,8.683,8.683,0,0,0,.589,3.28,4.887,4.887,0,0,0,1.834,2.249,5.644,5.644,0,0,0,3.173.83,9.793,9.793,0,0,0,1.847-.174,12.9,12.9,0,0,0,1.647-.428V28.256H88.489V26.02h6.694v7.042l-.134.067A13.925,13.925,0,0,1,92.1,34.16,15.53,15.53,0,0,1,89.011,34.508Zm47.056-.241V24.856c0-.683-.027-1.714-.094-3.079l-.013-.241h2.383l.027.2c.04.348.094.763.12,1.258.013.174.027.321.04.469a8.939,8.939,0,0,1,.629-.83,4.15,4.15,0,0,1,1.191-.964,3.293,3.293,0,0,1,1.593-.375,4.044,4.044,0,0,1,1.178.161l.187.054-.375,2.316-.241-.067a3.491,3.491,0,0,0-.857-.107,2.678,2.678,0,0,0-1.66.535,7.8,7.8,0,0,0-1.58,1.754v8.314h-2.53Zm-84.621,0-1.888-4.819H42.812l-1.834,4.819H38.22l6.8-17.015H47.3l6.961,17.015Zm-2.758-7.028-1.928-4.993c-.161-.4-.375-.937-.6-1.62-.161.509-.348,1.031-.562,1.58l-1.941,5.034Z" transform="translate(-38.033 -1.294)" fill="#fff"/>
        <g id="Сгруппировать_13133" data-name="Сгруппировать 13133">
          <path id="Контур_13946" data-name="Контур 13946" d="M42.029,14.86a4.228,4.228,0,0,1-2.115-.509,3.439,3.439,0,0,1-1.365-1.432,4.718,4.718,0,0,1-.469-2.142,4.8,4.8,0,0,1,.5-2.249,3.519,3.519,0,0,1,1.446-1.486,4.561,4.561,0,0,1,2.236-.522,4.228,4.228,0,0,1,2.115.509,3.329,3.329,0,0,1,1.352,1.432,4.7,4.7,0,0,1,.469,2.129,4.877,4.877,0,0,1-.509,2.276,3.518,3.518,0,0,1-1.446,1.486A4.638,4.638,0,0,1,42.029,14.86Zm.08-1.111a2.472,2.472,0,0,0,1.432-.4,2.522,2.522,0,0,0,.884-1.084,4.2,4.2,0,0,0,.295-1.58,4.294,4.294,0,0,0-.254-1.553,2.341,2.341,0,0,0-.83-1.1,2.557,2.557,0,0,0-3.8,1.125,3.785,3.785,0,0,0-.295,1.526,4.205,4.205,0,0,0,.281,1.58,2.345,2.345,0,0,0,.857,1.1A2.571,2.571,0,0,0,42.11,13.749Z" transform="translate(-38.08 -4.512)" fill="#fff"/>
          <path id="Контур_13947" data-name="Контур 13947" d="M46.9,7.765H44.38L44.5,6.6h6.319l-.134,1.165h-2.4v6.948H46.883V7.765Z" transform="translate(-35.946 -4.485)" fill="#fff"/>
          <path id="Контур_13948" data-name="Контур 13948" d="M56.442,14.743h-1.58L52.44,11.169h-.964v3.574H50.07V6.63h1.406V9.977h.736L53.9,7.541a2.835,2.835,0,0,1,.736-.79,1.711,1.711,0,0,1,.937-.241,2.106,2.106,0,0,1,.843.161l-.281,1.1a1.05,1.05,0,0,0-.442-.094.764.764,0,0,0-.428.12,1.355,1.355,0,0,0-.361.4l-1.486,2.129Z" transform="translate(-34.019 -4.515)" fill="#fff"/>
          <path id="Контур_13949" data-name="Контур 13949" d="M55.637,6.6h2.182a3.8,3.8,0,0,1,2.356.629,2.148,2.148,0,0,1,.817,1.821,2.567,2.567,0,0,1-.375,1.406,2.427,2.427,0,0,1-1.017.924,3.4,3.4,0,0,1-1.513.321,6.72,6.72,0,0,1-1.071-.107v3.133H55.61V6.6Zm2.222,4.03a1.923,1.923,0,0,0,1.312-.4,1.491,1.491,0,0,0,.455-1.151,1.255,1.255,0,0,0-.455-1.084,2.32,2.32,0,0,0-1.339-.335h-.763v2.878A4.1,4.1,0,0,0,57.859,10.63Z" transform="translate(-32.142 -4.485)" fill="#fff"/>
          <path id="Контур_13950" data-name="Контур 13950" d="M64.239,14.86a4.228,4.228,0,0,1-2.115-.509,3.439,3.439,0,0,1-1.366-1.432,4.718,4.718,0,0,1-.469-2.142,4.8,4.8,0,0,1,.5-2.249,3.519,3.519,0,0,1,1.446-1.486,4.561,4.561,0,0,1,2.236-.522,4.228,4.228,0,0,1,2.115.509,3.225,3.225,0,0,1,1.352,1.419,4.7,4.7,0,0,1,.469,2.129,4.878,4.878,0,0,1-.509,2.276,3.519,3.519,0,0,1-1.446,1.486A4.491,4.491,0,0,1,64.239,14.86Zm.08-1.111a2.472,2.472,0,0,0,1.432-.4,2.522,2.522,0,0,0,.884-1.084,4.2,4.2,0,0,0,.295-1.58,4.294,4.294,0,0,0-.254-1.553,2.34,2.34,0,0,0-.83-1.1,2.557,2.557,0,0,0-3.8,1.125,3.785,3.785,0,0,0-.295,1.526,4.205,4.205,0,0,0,.281,1.58,2.345,2.345,0,0,0,.857,1.1A2.571,2.571,0,0,0,64.32,13.749Z" transform="translate(-30.557 -4.512)" fill="#fff"/>
          <path id="Контур_13951" data-name="Контур 13951" d="M73.089,15.248V10.79c0-.562.027-1.2.067-1.928l-4.083,6.4H67.52V7.135h1.3v4.632c0,.509-.013,1.058-.054,1.66l4.016-6.292h1.606v8.126h-1.3ZM71.027,6.653a2.294,2.294,0,0,1-1.1-.241,1.735,1.735,0,0,1-.669-.6,1.89,1.89,0,0,1-.295-.79h1a1.072,1.072,0,0,0,2.115,0H73.1a1.89,1.89,0,0,1-.295.79,1.677,1.677,0,0,1-.683.6A2.148,2.148,0,0,1,71.027,6.653Z" transform="translate(-28.108 -5.02)" fill="#fff"/>
          <path id="Контур_13952" data-name="Контур 13952" d="M76.057,7.765H73.54L73.66,6.6h6.319l-.134,1.165h-2.4v6.948H76.043V7.765Z" transform="translate(-26.069 -4.485)" fill="#fff"/>
          <path id="Контур_13953" data-name="Контур 13953" d="M79.243,6.6h4.779l-.134,1.151H80.636V9.987H83.7v1.084H80.636v2.477h3.427l-.12,1.165H79.23V6.6Z" transform="translate(-24.141 -4.485)" fill="#fff"/>
          <path id="Контур_13954" data-name="Контур 13954" d="M90.325,10.348a2.644,2.644,0,0,1,.991.348,1.89,1.89,0,0,1,.683.7,2.229,2.229,0,0,1-.08,2.209,2.2,2.2,0,0,1-.991.8,3.986,3.986,0,0,1-1.566.295H86.71V6.6h2.53a3.171,3.171,0,0,1,1.941.5,1.64,1.64,0,0,1,.643,1.366,1.759,1.759,0,0,1-.415,1.2A2.078,2.078,0,0,1,90.325,10.348ZM88.076,9.92h.87a1.619,1.619,0,0,0,.776-.174,1.235,1.235,0,0,0,.509-.469,1.221,1.221,0,0,0,.174-.643.858.858,0,0,0-.361-.75A1.882,1.882,0,0,0,89,7.644h-.937V9.92Zm1.058,3.762a2.06,2.06,0,0,0,1.3-.348,1.229,1.229,0,0,0,.428-.991,1.209,1.209,0,0,0-.469-1.031,2.241,2.241,0,0,0-1.366-.348h-.937V13.7h1.044Z" transform="translate(-21.608 -4.485)" fill="#fff"/>
        </g>
      </g>
    </g>
  </g>
</svg>
