<svg xmlns="http://www.w3.org/2000/svg" width="196" height="57" viewBox="0 0 196 57">
  <g id="evo2" transform="translate(2.342 -0.5)">
    <g id="Group" transform="translate(0)">
      <g id="Group-2" data-name="Group" transform="translate(-6.524 -1.9)">
        <rect id="Прямоугольник_1848" data-name="Прямоугольник 1848" width="196" height="57" rx="5" transform="translate(4.183 2.4)" fill="#1e1f2e"/>
      </g>
      <g id="_Group_" transform="translate(12.692 10.943)">
        <g id="_Group_2" transform="translate(0 0)">
          <g id="_Group_3">
            <path id="_Path_" d="M20.641,8.827a6.9,6.9,0,0,1,3.287-5.792A7.066,7.066,0,0,0,18.361.025c-2.342-.246-4.613,1.4-5.807,1.4C11.337,1.427,9.5.049,7.52.09A7.414,7.414,0,0,0,1.281,3.9C-1.417,8.566.6,15.43,3.18,19.206c1.293,1.849,2.8,3.914,4.781,3.841,1.935-.08,2.657-1.234,4.993-1.234,2.314,0,2.992,1.234,5.009,1.187,2.076-.034,3.384-1.857,4.632-3.723a15.291,15.291,0,0,0,2.118-4.314,6.671,6.671,0,0,1-4.072-6.136Z" transform="translate(0 7.327)" fill="#fff"/>
            <path id="_Path_2" d="M4.529,4.869A6.8,6.8,0,0,0,6.083,0,6.915,6.915,0,0,0,1.609,2.315,6.467,6.467,0,0,0,.014,7,5.718,5.718,0,0,0,4.529,4.869Z" transform="translate(12.302)" fill="#fff"/>
          </g>
        </g>
        <g id="Group-3" data-name="Group" transform="translate(53.49 12.764)">
          <path id="Shape" d="M2.8,17.323H0L6.254,0H9.16l6.254,17.32-2.844,0L10.985,12.64h-6.6L2.8,17.322ZM7.648,2.881l-2.582,7.6H10.3l-2.58-7.6Z" transform="translate(0 0.289)" fill="#fff"/>
          <path id="Shape-2" data-name="Shape" d="M2.592,16.942H0V.134H2.51v2.1h.048A4.49,4.49,0,0,1,6.431,0l.147,0a4.841,4.841,0,0,1,3.861,1.756A7.256,7.256,0,0,1,11.9,6.45a7.293,7.293,0,0,1-1.446,4.694A4.782,4.782,0,0,1,6.626,12.9c-.074,0-.15.006-.224.006a4.279,4.279,0,0,1-3.75-2.215h-.06V16.94Zm3.3-14.73c-1.982,0-3.313,1.7-3.313,4.238S3.913,10.7,5.894,10.7c2.028,0,3.338-1.668,3.338-4.248a4.925,4.925,0,0,0-.913-3.078A2.982,2.982,0,0,0,5.894,2.212Z" transform="translate(17.024 4.847)" fill="#fff"/>
          <path id="Shape-3" data-name="Shape" d="M2.592,16.942H0V.134H2.51v2.1h.048A4.49,4.49,0,0,1,6.431,0l.147,0a4.841,4.841,0,0,1,3.861,1.756A7.254,7.254,0,0,1,11.9,6.449c0,3.916-2.069,6.447-5.27,6.447-.074,0-.15.006-.224.006a4.279,4.279,0,0,1-3.75-2.215h-.06V16.94Zm3.3-14.73c-1.982,0-3.313,1.7-3.313,4.237S3.913,10.7,5.894,10.7c2.028,0,3.338-1.668,3.338-4.25a4.922,4.922,0,0,0-.913-3.077A2.982,2.982,0,0,0,5.894,2.212Z" transform="translate(30.924 4.847)" fill="#fff"/>
          <path id="Shape-4" data-name="Shape" d="M2.654,12.784C2.846,14.5,4.514,15.63,6.795,15.63c2.185,0,3.757-1.128,3.757-2.677,0-1.345-.948-2.15-3.193-2.7L5.114,9.711C1.933,8.943.456,7.455.456,5.042.456,2.053,3.061,0,6.759,0c3.66,0,6.169,2.053,6.254,5.042H10.4C10.24,3.313,8.811,2.269,6.723,2.269S3.205,3.325,3.205,4.862c0,1.225.913,1.945,3.145,2.5l1.908.469c3.554.84,5.031,2.268,5.031,4.8,0,3.241-2.581,5.27-6.687,5.27C2.761,17.9.168,15.917,0,12.784Z" transform="translate(49.353 0)" fill="#fff"/>
          <path id="Shape-5" data-name="Shape" d="M4.441,0V2.989h2.4V5.042h-2.4V12c0,1.082.481,1.586,1.537,1.586a8.1,8.1,0,0,0,.853-.06V15.57a7.119,7.119,0,0,1-1.44.12c-2.557,0-3.554-.96-3.554-3.41V5.042H0V2.989H1.836V0Z" transform="translate(63.797 1.993)" fill="#fff"/>
          <path id="Shape-6" data-name="Shape" d="M5.99,12.941A5.771,5.771,0,0,1,1.618,11.2,6.8,6.8,0,0,1,0,6.47,6.787,6.787,0,0,1,1.626,1.745,5.766,5.766,0,0,1,5.99,0a5.769,5.769,0,0,1,4.369,1.745A6.792,6.792,0,0,1,11.98,6.47,6.8,6.8,0,0,1,10.363,11.2,5.773,5.773,0,0,1,5.99,12.941Zm0-10.805c-2.1,0-3.348,1.621-3.348,4.335S3.893,10.8,5.99,10.8,9.339,9.184,9.339,6.47,8.087,2.135,5.99,2.135Z" transform="translate(72.03 4.826)" fill="#fff"/>
          <path id="Shape-7" data-name="Shape" d="M0,.134H2.472v2.15h.06A3.012,3.012,0,0,1,5.57,0a4,4,0,0,1,.888.1V2.524a3.624,3.624,0,0,0-1.165-.157,2.612,2.612,0,0,0-2.7,2.906v7.491H0Z" transform="translate(86.148 4.847)" fill="#fff"/>
          <path id="Shape-8" data-name="Shape" d="M5.954,12.941C2.282,12.941,0,10.485,0,6.531S2.294,0,5.845,0A5.445,5.445,0,0,1,10,1.679a6.6,6.6,0,0,1,1.535,4.551v.888H2.616v.157a3.289,3.289,0,0,0,3.28,3.58l.119,0c.089.008.179.013.268.013A2.846,2.846,0,0,0,8.931,9.075h2.461C11.046,11.352,8.81,12.941,5.954,12.941ZM5.826,2.1a3.2,3.2,0,0,0-3.2,3.205H8.942A3.036,3.036,0,0,0,5.909,2.1H5.826Z" transform="translate(93.166 4.826)" fill="#fff"/>
        </g>
      </g>
    </g>
    <g id="_Group_4" transform="translate(67.917 10.548)">
      <g id="Group-4" data-name="Group" transform="translate(0 0)">
        <path id="Shape-9" data-name="Shape" d="M3.007,8.332H0V.009H3.007C3.094,0,3.183,0,3.271,0A3.681,3.681,0,0,1,6.922,4.145C6.922,6.806,5.5,8.332,3.007,8.332ZM1.293,1.185h0V7.155H2.862c.052,0,.1,0,.154,0a2.617,2.617,0,0,0,2.59-3,2.623,2.623,0,0,0-2.6-2.981q-.071,0-.143,0H1.293Z" transform="translate(0 0.401)" fill="#fff"/>
        <path id="Shape-10" data-name="Shape" d="M2.977,6.523A2.977,2.977,0,0,1,.014,3.259,2.975,2.975,0,0,1,4.545.447,2.957,2.957,0,0,1,5.939,3.259,2.975,2.975,0,0,1,2.977,6.523Zm0-5.422c-1.07,0-1.684.787-1.684,2.158s.614,2.163,1.684,2.163,1.686-.788,1.686-2.163S4.05,1.1,2.978,1.1Z" transform="translate(8.369 2.331)" fill="#fff"/>
        <path id="Shape-11" data-name="Shape" d="M6.98,6.281H5.694L4.4,1.655H4.3L3.005,6.281H1.731L0,0H1.257L2.383,4.793h.093L3.767,0H4.956L6.247,4.793h.1L7.465,0H8.7Z" transform="translate(15.202 2.452)" fill="#fff"/>
        <path id="Shape-12" data-name="Shape" d="M0,.127H1.193v1h.093A1.88,1.88,0,0,1,3.16.006,2.043,2.043,0,0,1,5.334,2.342V6.409H4.095V2.654c0-1.009-.439-1.511-1.355-1.511a1.441,1.441,0,0,0-1.5,1.592V6.409H0Z" transform="translate(25.363 2.325)" fill="#fff"/>
        <path id="Shape-13" data-name="Shape" d="M0,0H1.24V8.733H0Z" transform="translate(32.673)" fill="#fff"/>
        <path id="Shape-14" data-name="Shape" d="M2.977,6.523A2.977,2.977,0,0,1,.014,3.259,2.976,2.976,0,0,1,4.546.447,2.962,2.962,0,0,1,5.94,3.259,2.977,2.977,0,0,1,2.977,6.523Zm0-5.422c-1.07,0-1.684.787-1.684,2.158s.614,2.163,1.684,2.163,1.686-.788,1.686-2.163S4.05,1.1,2.978,1.1Z" transform="translate(35.621 2.33)" fill="#fff"/>
        <path id="Shape-15" data-name="Shape" d="M1.9,6.516A1.9,1.9,0,0,1,0,4.626C0,3.51.83,2.844,2.336,2.751l1.7-.1V2.11c0-.67-.457-1.038-1.286-1.038-.694,0-1.171.255-1.309.7H.242C.369.695,1.377,0,2.808,0,4.374,0,5.271.769,5.271,2.11V6.4H4.079V5.52h-.1a2.1,2.1,0,0,1-1.789.988l-.1,0A1.909,1.909,0,0,1,1.9,6.516Zm2.14-2.952-1.534.1c-.857.057-1.257.345-1.257.906,0,.543.457.894,1.165.894.049,0,.1.007.149.007A1.48,1.48,0,0,0,4.037,4.089Z" transform="translate(42.865 2.331)" fill="#fff"/>
        <path id="Shape-16" data-name="Shape" d="M2.689,8.838l-.081,0C1,8.837,0,7.593,0,5.59,0,3.62,1.023,2.348,2.607,2.348l.094,0a2.065,2.065,0,0,1,1.831,1.1h.093V0H5.865V8.733H4.678V7.741h-.1A2.187,2.187,0,0,1,2.689,8.838Zm.27-5.377c-1.035,0-1.678.816-1.678,2.129,0,1.336.627,2.133,1.678,2.133s1.69-.815,1.69-2.128S4,3.461,2.959,3.461Z" transform="translate(49.766 0)" fill="#fff"/>
        <path id="Shape-17" data-name="Shape" d="M2.977,6.523A2.977,2.977,0,0,1,.014,3.259,2.975,2.975,0,0,1,4.545.447,2.957,2.957,0,0,1,5.939,3.259,2.975,2.975,0,0,1,2.977,6.523Zm0-5.422c-1.07,0-1.684.787-1.684,2.158s.614,2.163,1.684,2.163,1.686-.788,1.686-2.163S4.05,1.1,2.978,1.1Z" transform="translate(60.746 2.331)" fill="#fff"/>
        <path id="Shape-18" data-name="Shape" d="M0,.127H1.193v1h.093A1.88,1.88,0,0,1,3.16.006,2.043,2.043,0,0,1,5.334,2.342V6.409H4.095V2.654c0-1.009-.439-1.511-1.355-1.511a1.441,1.441,0,0,0-1.5,1.592V6.409H0Z" transform="translate(68.348 2.325)" fill="#fff"/>
        <path id="Shape-19" data-name="Shape" d="M2.238,0V1.592H3.6V2.637H2.238v3.23c0,.658.271.946.888.946A4.138,4.138,0,0,0,3.6,6.784V7.816a4.067,4.067,0,0,1-.674.063C1.546,7.88,1,7.395,1,6.184V2.637H0V1.592H1V0Z" transform="translate(78.449 0.888)" fill="#fff"/>
        <path id="Shape-20" data-name="Shape" d="M0,0H1.229V3.461h.1A1.933,1.933,0,0,1,3.242,2.336,2.069,2.069,0,0,1,5.405,4.678V8.733H4.164V4.984c0-1-.467-1.511-1.343-1.511A1.467,1.467,0,0,0,1.24,5.065V8.733H0Z" transform="translate(83.741)" fill="#fff"/>
        <path id="Shape-21" data-name="Shape" d="M3.208,6.538a2.565,2.565,0,0,1-.279-.015H2.852A2.853,2.853,0,0,1,.027,3.282,2.9,2.9,0,0,1,2.9,0h.026c1.755,0,2.8,1.184,2.8,3.166V3.6H1.29v.069a1.66,1.66,0,0,0,1.656,1.8h.018a1.5,1.5,0,0,0,1.494-.762H5.651A2.561,2.561,0,0,1,3.208,6.538ZM2.9,1.055a1.6,1.6,0,0,0-1.138.471A1.619,1.619,0,0,0,1.29,2.683H4.462A1.515,1.515,0,0,0,2.948,1.054H2.9Z" transform="translate(90.724 2.331)" fill="#fff"/>
      </g>
    </g>
  </g>
</svg>
