<svg xmlns="http://www.w3.org/2000/svg" xmlns:xlink="http://www.w3.org/1999/xlink" width="78.045" height="69.686" viewBox="0 0 78.045 69.686">
  <defs>
    <linearGradient id="linear-gradient" x1="3.474" y1="-4.6" x2="-2.098" y2="-2.639" gradientUnits="objectBoundingBox">
      <stop offset="0" stop-color="#4f6a7b"/>
      <stop offset="1" stop-color="#53c6e2"/>
    </linearGradient>
  </defs>
  <g id="partner3" transform="translate(-725.651 -1922.019)">
    <g id="Сгруппировать_4125" data-name="Сгруппировать 4125" transform="translate(726.151 1922.519)">
      <g id="Сгруппировать_4125-2" data-name="Сгруппировать 4125" transform="translate(0 0)">
        <path id="Контур_13928" data-name="Контур 13928" d="M3278.74,2337.106h-35.848a4.691,4.691,0,0,1-4.686-4.686v-48.686a4.691,4.691,0,0,1,4.686-4.686h66.069a4.691,4.691,0,0,1,4.686,4.686v35.142h-2.538v-35.142a2.151,2.151,0,0,0-2.148-2.148h-66.069a2.15,2.15,0,0,0-2.147,2.148v48.686a2.15,2.15,0,0,0,2.147,2.148h35.848Z" transform="translate(-3238.206 -2279.048)" stroke="rgba(0,0,0,0)" stroke-width="1" fill="url(#linear-gradient)"/>
      </g>
      <g id="Сгруппировать_4126" data-name="Сгруппировать 4126" transform="translate(74.172 39.828)">
        <path id="Контур_13929" data-name="Контур 13929" d="M3705.79,2530.126" transform="translate(-3705.79 -2530.126)" stroke="rgba(0,0,0,0)" stroke-width="1" fill="url(#linear-gradient)"/>
      </g>
      <g id="Сгруппировать_4127" data-name="Сгруппировать 4127" transform="translate(74.172 34.743)">
        <path id="Контур_13930" data-name="Контур 13930" d="M3705.79,2498.073" transform="translate(-3705.79 -2498.073)" stroke="rgba(0,0,0,0)" stroke-width="1" fill="url(#linear-gradient)"/>
      </g>
      <g id="Сгруппировать_4134" data-name="Сгруппировать 4134" transform="translate(40.534 32.175)">
        <g id="Сгруппировать_4129" data-name="Сгруппировать 4129" transform="translate(4.523 4.523)">
          <path id="Контур_13932" data-name="Контур 13932" d="M3535.981,2537.859a13.732,13.732,0,1,1,13.732-13.732A13.747,13.747,0,0,1,3535.981,2537.859Zm0-24.926a11.194,11.194,0,1,0,11.194,11.195A11.207,11.207,0,0,0,3535.981,2512.933Z" transform="translate(-3522.249 -2510.395)" stroke="rgba(0,0,0,0)" stroke-width="1" fill="url(#linear-gradient)"/>
        </g>
        <g id="Сгруппировать_4130" data-name="Сгруппировать 4130" transform="translate(16.987 0)">
          <rect id="Прямоугольник_923" data-name="Прямоугольник 923" width="2.538" height="11.585" stroke="rgba(0,0,0,0)" stroke-width="1" fill="url(#linear-gradient)"/>
        </g>
        <g id="Сгруппировать_4131" data-name="Сгруппировать 4131" transform="translate(0 16.987)">
          <rect id="Прямоугольник_924" data-name="Прямоугольник 924" width="11.585" height="2.538" stroke="rgba(0,0,0,0)" stroke-width="1" fill="url(#linear-gradient)"/>
        </g>
        <g id="Сгруппировать_4132" data-name="Сгруппировать 4132" transform="translate(16.987 24.926)">
          <rect id="Прямоугольник_925" data-name="Прямоугольник 925" width="2.538" height="11.585" stroke="rgba(0,0,0,0)" stroke-width="1" fill="url(#linear-gradient)"/>
        </g>
        <g id="Сгруппировать_4133" data-name="Сгруппировать 4133" transform="translate(24.926 16.987)">
          <rect id="Прямоугольник_926" data-name="Прямоугольник 926" width="11.585" height="2.538" stroke="rgba(0,0,0,0)" stroke-width="1" fill="url(#linear-gradient)"/>
        </g>
      </g>
    </g>
    <g id="Сгруппировать_4143" data-name="Сгруппировать 4143" transform="translate(733.471 1929.576)">
      <g id="Сгруппировать_4135" data-name="Сгруппировать 4135" transform="translate(0 3.841)">
        <path id="Контур_13937" data-name="Контур 13937" d="M0,0H61.69V2.051H0Z" transform="translate(0 0)" stroke="rgba(0,0,0,0)" stroke-width="1" fill="url(#linear-gradient)"/>
      </g>
      <g id="Сгруппировать_4136" data-name="Сгруппировать 4136" transform="translate(0.913)">
        <path id="Контур_13933" data-name="Контур 13933" d="M2585.865,2332.845h-11.915a1.026,1.026,0,1,1,0-2.051h11.915a1.026,1.026,0,1,1,0,2.051Z" transform="translate(-2572.925 -2330.794)" stroke="rgba(0,0,0,0)" stroke-width="1" fill="url(#linear-gradient)"/>
      </g>
      <g id="Сгруппировать_4137" data-name="Сгруппировать 4137" transform="translate(19.44)">
        <path id="Контур_13934" data-name="Контур 13934" d="M2719.771,2332.845h-1.309a1.026,1.026,0,1,1,0-2.051h1.309a1.026,1.026,0,1,1,0,2.051Z" transform="translate(-2717.437 -2330.794)" stroke="rgba(0,0,0,0)" stroke-width="1" fill="url(#linear-gradient)"/>
      </g>
      <g id="Сгруппировать_4138" data-name="Сгруппировать 4138" transform="translate(27.164)">
        <path id="Контур_13935" data-name="Контур 13935" d="M2780.021,2332.845h-1.309a1.026,1.026,0,1,1,0-2.051h1.309a1.026,1.026,0,1,1,0,2.051Z" transform="translate(-2777.687 -2330.794)" stroke="rgba(0,0,0,0)" stroke-width="1" fill="url(#linear-gradient)"/>
      </g>
      <g id="Сгруппировать_4139" data-name="Сгруппировать 4139" transform="translate(2.13 16.605)">
        <path id="Контур_13936" data-name="Контур 13936" d="M2598.987,2477.9h-15.541a1.026,1.026,0,0,1-1.025-1.026v-15.541a1.026,1.026,0,0,1,1.025-1.026h15.541a1.025,1.025,0,0,1,1.025,1.026v15.541A1.025,1.025,0,0,1,2598.987,2477.9Zm-14.515-2.051h13.49v-13.49h-13.49Z" transform="translate(-2582.421 -2460.313)" stroke="rgba(0,0,0,0)" stroke-width="1" fill="url(#linear-gradient)"/>
      </g>
      <g id="Сгруппировать_4140" data-name="Сгруппировать 4140" transform="translate(24.458 32.146)">
        <rect id="Прямоугольник_928" data-name="Прямоугольник 928" width="10.798" height="2.051" transform="translate(0 0)" stroke="rgba(0,0,0,0)" stroke-width="1" fill="url(#linear-gradient)"/>
      </g>
      <g id="Сгруппировать_4141" data-name="Сгруппировать 4141" transform="translate(24.458 24.375)">
        <rect id="Прямоугольник_929" data-name="Прямоугольник 929" width="17.208" height="2.051" transform="translate(0 0)" stroke="rgba(0,0,0,0)" stroke-width="1" fill="url(#linear-gradient)"/>
      </g>
      <g id="Сгруппировать_4142" data-name="Сгруппировать 4142" transform="translate(24.458 16.604)">
        <rect id="Прямоугольник_930" data-name="Прямоугольник 930" width="17.208" height="2.051" transform="translate(0 0)" stroke="rgba(0,0,0,0)" stroke-width="1" fill="url(#linear-gradient)"/>
      </g>
    </g>
  </g>
</svg>
