<svg xmlns="http://www.w3.org/2000/svg" xmlns:xlink="http://www.w3.org/1999/xlink" width="195.335" height="248" viewBox="0 0 195.335 248"><defs><linearGradient id="linear-gradient" x1=".312" x2=".802" y1=".789" y2=".265" gradientUnits="objectBoundingBox"><stop offset="0" stop-color="#0ecaff"/><stop offset=".105" stop-color="#00b1e3"/><stop offset="1" stop-color="#0a5a71"/></linearGradient><linearGradient id="linear-gradient-75" x1="-161.946" x2="-162.926" y1="1.104" y2=".039" gradientUnits="objectBoundingBox"><stop offset="0" stop-color="#6f787b"/><stop offset="1" stop-color="#969da1"/></linearGradient></defs><g id="pl2" transform="translate(0 57.584)"><path id="Path_283" fill="url(#linear-gradient)" d="M453.674,414.628a8.156,8.156,0,0,1-3.987-1.007l-80.884-46.7a3.268,3.268,0,0,1-1.9-2.656,2.53,2.53,0,0,1,1.434-2.163l103.986-60.037a7.814,7.814,0,0,1,7.13.271l80.885,46.7a3.273,3.273,0,0,1,1.9,2.658,2.528,2.528,0,0,1-1.433,2.163L456.818,413.891A6.386,6.386,0,0,1,453.674,414.628Zm21.774-112.072a5.148,5.148,0,0,0-2.518.567L368.945,363.157a1.407,1.407,0,0,0-.824,1.108c0,.535.483,1.134,1.293,1.6l80.884,46.7a6.7,6.7,0,0,0,5.911.271L560.194,352.8a1.4,1.4,0,0,0,.823-1.107c0-.537-.483-1.135-1.291-1.6l-80.885-46.7A7,7,0,0,0,475.448,302.556Z" data-name="Path 283" opacity=".11" transform="translate(-366.901 -224.212)"/><path id="Path_284" fill="url(#linear-gradient)" d="M453.674,401.876a8.156,8.156,0,0,1-3.987-1.007L368.8,354.17a3.27,3.27,0,0,1-1.9-2.657,2.53,2.53,0,0,1,1.434-2.163l103.986-60.037a7.813,7.813,0,0,1,7.13.271l80.885,46.7a3.273,3.273,0,0,1,1.9,2.658A2.528,2.528,0,0,1,560.8,341.1L456.818,401.139A6.386,6.386,0,0,1,453.674,401.876ZM475.448,289.8a5.161,5.161,0,0,0-2.518.567L368.945,350.406a1.4,1.4,0,0,0-.824,1.107c0,.536.483,1.134,1.293,1.6l80.884,46.7a6.7,6.7,0,0,0,5.911.271l103.986-60.037a1.4,1.4,0,0,0,.823-1.107c0-.536-.483-1.135-1.291-1.6l-80.885-46.7A7.018,7.018,0,0,0,475.448,289.8Z" data-name="Path 284" opacity=".22" transform="translate(-366.901 -227.009)"/><path id="Path_285" fill="url(#linear-gradient)" d="M453.674,389.124a8.156,8.156,0,0,1-3.987-1.007l-80.884-46.7a3.27,3.27,0,0,1-1.9-2.657,2.53,2.53,0,0,1,1.434-2.163l103.986-60.037a7.817,7.817,0,0,1,7.13.271l80.885,46.7a3.274,3.274,0,0,1,1.9,2.659,2.525,2.525,0,0,1-1.433,2.162L456.818,388.387A6.386,6.386,0,0,1,453.674,389.124Zm21.774-112.072a5.161,5.161,0,0,0-2.518.567L368.945,337.654a1.4,1.4,0,0,0-.824,1.107c0,.536.483,1.134,1.293,1.6l80.884,46.7a6.7,6.7,0,0,0,5.911.271L560.194,327.3a1.4,1.4,0,0,0,.823-1.107c0-.535-.483-1.134-1.291-1.6l-80.885-46.7A7.015,7.015,0,0,0,475.448,277.051Z" data-name="Path 285" opacity=".33" transform="translate(-366.901 -229.806)"/><path id="Path_286" fill="url(#linear-gradient)" d="M453.674,376.372a8.146,8.146,0,0,1-3.987-1.007l-80.884-46.7a3.271,3.271,0,0,1-1.9-2.657,2.53,2.53,0,0,1,1.434-2.163l103.986-60.036a7.813,7.813,0,0,1,7.13.269l80.885,46.7a3.269,3.269,0,0,1,1.9,2.657A2.528,2.528,0,0,1,560.8,315.6L456.818,375.635A6.382,6.382,0,0,1,453.674,376.372ZM475.449,264.3a5.162,5.162,0,0,0-2.519.567L368.945,324.9a1.4,1.4,0,0,0-.824,1.106c0,.537.483,1.134,1.293,1.6l80.884,46.7a6.7,6.7,0,0,0,5.911.271l103.986-60.037a1.4,1.4,0,0,0,.823-1.107c0-.535-.483-1.134-1.291-1.6l-80.885-46.7A7.013,7.013,0,0,0,475.449,264.3Z" data-name="Path 286" opacity=".44" transform="translate(-366.901 -232.603)"/><path id="Path_287" fill="url(#linear-gradient)" d="M456.4,364.185l103.986-60.037c1.672-.964,1.462-2.65-.468-3.764l-80.885-46.7a7.246,7.246,0,0,0-6.52-.271L368.53,313.451c-1.672.966-1.462,2.651.468,3.765l80.885,46.7A7.246,7.246,0,0,0,456.4,364.185Z" data-name="Path 287" opacity=".15" transform="translate(-366.791 -234.864)"/><g id="Group_230" data-name="Group 230" transform="translate(8.252 17.138)"><path id="Path_288" fill="url(#linear-gradient)" d="M373.671,307.071l25.409-1.656,71.427-41.238a6.675,6.675,0,0,1,6.006.249l55.942,32.3,20.045-1.306v3.3h-.018a1.76,1.76,0,0,1-1.021,1.511l-95.8,55.309a6.675,6.675,0,0,1-6.006-.249l-74.517-43.022a2.494,2.494,0,0,1-1.455-1.9h-.013Z" data-name="Path 288" opacity=".15" transform="translate(-373.668 -249.631)"/><path id="Path_289" fill="url(#linear-gradient)" d="M455.663,354.788l95.8-55.308c1.54-.889,1.346-2.442-.432-3.469l-74.517-43.022a6.675,6.675,0,0,0-6.006-.249l-95.8,55.309c-1.54.889-1.346,2.441.432,3.468l74.517,43.022A6.675,6.675,0,0,0,455.663,354.788Z" data-name="Path 289" opacity=".1" transform="translate(-373.669 -252.14)"/></g><path id="Path_290" fill="url(#linear-gradient)" d="M371.469,294.793l26.171-1.706,73.572-42.476a6.879,6.879,0,0,1,6.188.256l57.623,33.269,20.647-1.345V297.2h-.019a1.814,1.814,0,0,1-1.051,1.556l-98.675,56.971a6.883,6.883,0,0,1-6.188-.257l-76.754-44.315a2.569,2.569,0,0,1-1.5-1.956h-.013Z" data-name="Path 290" opacity=".1" transform="translate(-365.899 -235.472)"/><path id="Path_291" fill="url(#linear-gradient)" d="M455.924,343.816l98.675-56.97c1.585-.916,1.386-2.516-.445-3.573L477.4,238.959a6.879,6.879,0,0,0-6.188-.257l-98.675,56.97c-1.585.916-1.386,2.516.445,3.573l76.754,44.315A6.879,6.879,0,0,0,455.924,343.816Z" data-name="Path 291" opacity=".2" transform="translate(-365.9 -238.084)"/><g id="Group_303" data-name="Group 303" transform="translate(-315.198 -3924.955)"><g id="Group_276" data-name="Group 276" transform="translate(342.233 3867.371)"><g id="Group_275" data-name="Group 275" transform="translate(0 0)"><g id="Group_274" data-name="Group 274"><path id="Path_304" fill="url(#linear-gradient)" d="M464.284,556.167c.525-4.411,1.573-15.07,3.014-16.948s29.571-18.17,29.571-18.17l11.008-6.438L536.4,498.364s2.574-1.763,5.114-.465,12.64,7.316,12.64,7.316l-36.948,85.808-49.418-28.56A6.348,6.348,0,0,1,464.284,556.167Z" data-name="Path 304" opacity=".66" transform="translate(-464.237 -453.292)"/><path id="Path_305" fill="url(#linear-gradient)" d="M516.308,600.156l36.9,50.319c0,.089-1.039,2.79-1.039,2.79a13.6,13.6,0,0,1-3.012-1.251c-1.567-.888-1.863-.414-3.431-3.667s-7.419-14.612-11.555-20.306-16.246-19.423-17.864-22.061S515.469,601.108,516.308,600.156Z" data-name="Path 305" opacity=".66" transform="translate(-492.168 -509.415)"/><path id="Path_306" fill="url(#linear-gradient)" d="M567.216,508.8s8.151.608,12.647-1.389a73.605,73.605,0,0,0,9.232-5.149s2.938-2.612,6.234,1.5,20.5,25.28,20.5,25.28,4.556,6.1,6.894,10.24,5.515,10.494,5.815,11.812,1.318,3.417-2.7,5.875-69.593,41.483-69.593,41.483-3.482,2.937-5.46-1.079-9.112-17.5-13.068-22.419-18.764-22.66-19.782-24.039-2.818-3.54-.24-5.636,8.648-5.266,10.79-8.433a30.384,30.384,0,0,0,5.7-14.324c.636-5.206,2.158-8.309,6.114-10.879S554.569,502.535,567.216,508.8Z" data-name="Path 306" opacity=".66" transform="translate(-492.718 -455.491)"/><path id="Path_307" fill="url(#linear-gradient)" d="M568.063,536.191l29.31-3.211s7.713,5.311,11.595,13.29,8.166,21.748-3.2,26.952S583.7,571.8,573.933,562.777,563.214,541.227,568.063,536.191Z" data-name="Path 307" opacity=".66" transform="translate(-519.399 -472.717)"/><path id="Path_308" fill="url(#linear-gradient)" d="M572.836,553.476l30.911-2.011a12.45,12.45,0,0,1,4.08,8.8c.39,5.957-2.453,9.773-6.348,12.612s-11.993,6.255-18.692,2S570.575,559.792,572.836,553.476Z" data-name="Path 308" opacity=".66" transform="translate(-523.282 -482.815)"/><path id="Path_309" fill="url(#linear-gradient)" d="M561.455,490.646l-4.253-6-17.34-63.155s-2.472-6.75,1.541-10.292a48.426,48.426,0,0,1,9.253-6.694c2.821-1.61,7.265-3.553,10.476-2.962a11.816,11.816,0,0,1,3.375,1.839c1.306,1.6.975,4.1,1.714,6.67.926,3.219,14.7,60.09,14.7,60.09s2.5,9.548,2.207,13.936a19.788,19.788,0,0,1-8.654,8.439C568.456,495.4,565.842,492.918,561.455,490.646Z" data-name="Path 309" opacity=".66" transform="translate(-505.139 -400.856)"/><path id="Path_310" fill="url(#linear-gradient)" d="M546.8,409.922a48.433,48.433,0,0,1,9.253-6.694c2.822-1.611,7.265-3.554,10.477-2.963a11.763,11.763,0,0,1,3.375,1.84c1.3,1.6.975,4.1,1.715,6.67.926,3.219,14.7,60.091,14.7,60.091s2.5,9.548,2.206,13.935a19.787,19.787,0,0,1-8.654,8.439,15.212,15.212,0,0,1-12.456.632,23.527,23.527,0,0,1-3.015-1.926l-19.146-69.734S542.784,413.463,546.8,409.922Z" data-name="Path 310" opacity=".66" transform="translate(-508.085 -400.156)"/><path id="Path_311" fill="url(#linear-gradient)" d="M570.7,492.95l-19.433-70.781s-2.472-6.749,1.541-10.291a48.434,48.434,0,0,1,9.253-6.694c2.821-1.611,6.488-3.491,9.45-2.963s3.836,5.782,4.762,9,16.059,59.6,16.059,59.6,2.5,9.548,2.206,13.935a19.787,19.787,0,0,1-8.654,8.44A15.726,15.726,0,0,1,570.7,492.95Z" data-name="Path 311" opacity=".66" transform="translate(-511.37 -401.234)"/><path id="Path_312" fill="url(#linear-gradient)" d="M567.962,412c2.07-1.275,4.908-2.861,6.954-2.026,2.207.9,2.557,4.2,1.976,6.429a8.372,8.372,0,0,1-4.74,6.041c-2.73,1.515-5.867,1.563-7.542.313s-2.081-3.478-1.316-5.754S566.141,413.125,567.962,412Z" data-name="Path 312" opacity=".66" transform="translate(-518.148 -405.394)"/><path id="Path_313" fill="url(#linear-gradient)" d="M577.509,473.131a8.6,8.6,0,0,0,.328,3.023c1.039,3.092,4,4.286,6.61,2.665a7.6,7.6,0,0,0,2.847-8.536,18.377,18.377,0,0,0-1.736-3.472c-.766-.954-.448-2.787.555-4.5a15.934,15.934,0,0,0,2.279-6.334c.234-2.394-1.115-8.133-1.9-11.014s-2.534-8.5-3.114-9.364-1.766-1.812-4.113-1.162a26.459,26.459,0,0,0-7.435,3.485c-2.672,1.742-6.994,4.972-7.784,7.435s.116,5.739,1.162,9.62a97.389,97.389,0,0,0,4,11.55,3.639,3.639,0,0,0,3.346,2.255c1.227.125,3.957.071,4.645,1.667A5.2,5.2,0,0,1,577.509,473.131Z" data-name="Path 313" opacity=".66" transform="translate(-518.596 -418.768)"/><g id="Group_243" data-name="Group 243" transform="translate(59.079 65.825)"><path id="Path_314" fill="url(#linear-gradient)" d="M594.622,549.6a2.043,2.043,0,0,0,3.111,1.253,3.576,3.576,0,0,0,1.341-4.017,2.045,2.045,0,0,0-3.112-1.255A3.577,3.577,0,0,0,594.622,549.6Z" data-name="Path 314" opacity=".66" transform="translate(-594.452 -545.239)"/><path id="Path_315" fill="url(#linear-gradient)" d="M594.829,549.722a1.927,1.927,0,0,0,2.933,1.182,3.372,3.372,0,0,0,1.264-3.787,1.926,1.926,0,0,0-2.933-1.182A3.373,3.373,0,0,0,594.829,549.722Z" data-name="Path 315" opacity=".66" transform="translate(-594.57 -545.443)"/><path id="Path_316" fill="url(#linear-gradient)" d="M595.229,548.236a3.478,3.478,0,0,0-.361,2.861,1.927,1.927,0,0,0,2.933,1.182,2.788,2.788,0,0,0,.865-.869,2.827,2.827,0,0,1-.9.927,1.927,1.927,0,0,1-2.933-1.182A3.477,3.477,0,0,1,595.229,548.236Z" data-name="Path 316" opacity=".66" transform="translate(-594.57 -546.876)"/><path id="Path_317" fill="url(#linear-gradient)" d="M599.029,547.245a1.927,1.927,0,0,0-2.933-1.183,3.293,3.293,0,0,0-1.422,2.682,3.308,3.308,0,0,1,1.422-2.809,1.926,1.926,0,0,1,2.933,1.182,3.212,3.212,0,0,1,.158,1.107A3.166,3.166,0,0,0,599.029,547.245Z" data-name="Path 317" opacity=".66" transform="translate(-594.573 -545.443)"/></g><g id="Group_244" data-name="Group 244" transform="translate(64.779 62.373)"><path id="Path_318" fill="url(#linear-gradient)" d="M607.186,541.987a2.043,2.043,0,0,0,3.111,1.255,3.575,3.575,0,0,0,1.34-4.017,2.043,2.043,0,0,0-3.111-1.255A3.575,3.575,0,0,0,607.186,541.987Z" data-name="Path 318" opacity=".66" transform="translate(-607.015 -537.63)"/><path id="Path_319" fill="url(#linear-gradient)" d="M607.392,542.114a1.926,1.926,0,0,0,2.933,1.183,3.372,3.372,0,0,0,1.263-3.788,1.926,1.926,0,0,0-2.933-1.182A3.369,3.369,0,0,0,607.392,542.114Z" data-name="Path 319" opacity=".66" transform="translate(-607.133 -537.835)"/><path id="Path_320" fill="url(#linear-gradient)" d="M607.792,540.627a3.477,3.477,0,0,0-.36,2.862,1.926,1.926,0,0,0,2.933,1.182,2.811,2.811,0,0,0,.865-.868,2.84,2.84,0,0,1-.9.927,1.926,1.926,0,0,1-2.933-1.183A3.475,3.475,0,0,1,607.792,540.627Z" data-name="Path 320" opacity=".66" transform="translate(-607.134 -539.267)"/><path id="Path_321" fill="url(#linear-gradient)" d="M611.592,539.637a1.926,1.926,0,0,0-2.933-1.182,3.292,3.292,0,0,0-1.422,2.681,3.3,3.3,0,0,1,1.422-2.808,1.926,1.926,0,0,1,2.933,1.182,3.184,3.184,0,0,1,.158,1.106A3.139,3.139,0,0,0,611.592,539.637Z" data-name="Path 321" opacity=".66" transform="translate(-607.136 -537.835)"/></g><g id="Group_245" data-name="Group 245" transform="translate(70.45 58.746)"><path id="Path_322" fill="url(#linear-gradient)" d="M619.683,533.993a2.043,2.043,0,0,0,3.11,1.254,3.576,3.576,0,0,0,1.341-4.017,2.044,2.044,0,0,0-3.111-1.254A3.575,3.575,0,0,0,619.683,533.993Z" data-name="Path 322" opacity=".66" transform="translate(-619.512 -529.636)"/><path id="Path_323" fill="url(#linear-gradient)" d="M619.888,534.119a1.927,1.927,0,0,0,2.934,1.182,3.372,3.372,0,0,0,1.263-3.787,1.927,1.927,0,0,0-2.934-1.182A3.373,3.373,0,0,0,619.888,534.119Z" data-name="Path 323" opacity=".66" transform="translate(-619.63 -529.841)"/><path id="Path_324" fill="url(#linear-gradient)" d="M620.288,532.633a3.477,3.477,0,0,0-.36,2.861,1.926,1.926,0,0,0,2.933,1.182,2.81,2.81,0,0,0,.865-.868,2.839,2.839,0,0,1-.9.926,1.927,1.927,0,0,1-2.934-1.182A3.475,3.475,0,0,1,620.288,532.633Z" data-name="Path 324" opacity=".66" transform="translate(-619.63 -531.273)"/><path id="Path_325" fill="url(#linear-gradient)" d="M624.088,531.642a1.927,1.927,0,0,0-2.934-1.183,3.3,3.3,0,0,0-1.422,2.682,3.311,3.311,0,0,1,1.422-2.809,1.927,1.927,0,0,1,2.934,1.182,3.185,3.185,0,0,1,.158,1.107A3.148,3.148,0,0,0,624.088,531.642Z" data-name="Path 325" opacity=".66" transform="translate(-619.633 -529.841)"/></g><g id="Group_246" data-name="Group 246" transform="translate(60.793 72.752)"><path id="Path_326" fill="url(#linear-gradient)" d="M598.4,564.865a2.044,2.044,0,0,0,3.112,1.255,3.576,3.576,0,0,0,1.34-4.017,2.043,2.043,0,0,0-3.111-1.254A3.576,3.576,0,0,0,598.4,564.865Z" data-name="Path 326" opacity=".66" transform="translate(-598.229 -560.507)"/><path id="Path_327" fill="url(#linear-gradient)" d="M598.607,564.992a1.926,1.926,0,0,0,2.933,1.183,3.373,3.373,0,0,0,1.264-3.788,1.926,1.926,0,0,0-2.933-1.182A3.369,3.369,0,0,0,598.607,564.992Z" data-name="Path 327" opacity=".66" transform="translate(-598.347 -560.713)"/><path id="Path_328" fill="url(#linear-gradient)" d="M599.007,563.5a3.472,3.472,0,0,0-.36,2.861,1.926,1.926,0,0,0,2.933,1.182,2.823,2.823,0,0,0,.864-.868,2.838,2.838,0,0,1-.9.927,1.926,1.926,0,0,1-2.933-1.183A3.476,3.476,0,0,1,599.007,563.5Z" data-name="Path 328" opacity=".66" transform="translate(-598.348 -562.144)"/><path id="Path_329" fill="url(#linear-gradient)" d="M602.806,562.515a1.926,1.926,0,0,0-2.933-1.183,3.292,3.292,0,0,0-1.422,2.68,3.306,3.306,0,0,1,1.422-2.808,1.926,1.926,0,0,1,2.933,1.182,3.2,3.2,0,0,1,.158,1.106A3.144,3.144,0,0,0,602.806,562.515Z" data-name="Path 329" opacity=".66" transform="translate(-598.35 -560.713)"/></g><g id="Group_247" data-name="Group 247" transform="translate(66.493 69.301)"><path id="Path_330" fill="url(#linear-gradient)" d="M610.964,557.257a2.045,2.045,0,0,0,3.111,1.255,3.577,3.577,0,0,0,1.34-4.018,2.044,2.044,0,0,0-3.111-1.254A3.576,3.576,0,0,0,610.964,557.257Z" data-name="Path 330" opacity=".66" transform="translate(-610.793 -552.9)"/><path id="Path_331" fill="url(#linear-gradient)" d="M611.17,557.383a1.926,1.926,0,0,0,2.933,1.182,3.369,3.369,0,0,0,1.264-3.786,1.927,1.927,0,0,0-2.934-1.183A3.374,3.374,0,0,0,611.17,557.383Z" data-name="Path 331" opacity=".66" transform="translate(-610.911 -553.104)"/><path id="Path_332" fill="url(#linear-gradient)" d="M611.57,555.9a3.477,3.477,0,0,0-.361,2.86,1.926,1.926,0,0,0,2.933,1.183,2.811,2.811,0,0,0,.865-.868,2.821,2.821,0,0,1-.9.926,1.926,1.926,0,0,1-2.933-1.182A3.476,3.476,0,0,1,611.57,555.9Z" data-name="Path 332" opacity=".66" transform="translate(-610.911 -554.537)"/><path id="Path_333" fill="url(#linear-gradient)" d="M615.37,554.906a1.927,1.927,0,0,0-2.934-1.183,3.294,3.294,0,0,0-1.421,2.682,3.309,3.309,0,0,1,1.421-2.809,1.927,1.927,0,0,1,2.934,1.183,3.173,3.173,0,0,1,.158,1.106A3.15,3.15,0,0,0,615.37,554.906Z" data-name="Path 333" opacity=".66" transform="translate(-610.914 -553.104)"/></g><g id="Group_248" data-name="Group 248" transform="translate(72.163 65.673)"><path id="Path_334" fill="url(#linear-gradient)" d="M623.46,549.262a2.044,2.044,0,0,0,3.111,1.255,3.575,3.575,0,0,0,1.34-4.017,2.043,2.043,0,0,0-3.111-1.255A3.574,3.574,0,0,0,623.46,549.262Z" data-name="Path 334" opacity=".66" transform="translate(-623.29 -544.904)"/><path id="Path_335" fill="url(#linear-gradient)" d="M623.667,549.388a1.926,1.926,0,0,0,2.933,1.182,3.371,3.371,0,0,0,1.264-3.787,1.926,1.926,0,0,0-2.933-1.182A3.373,3.373,0,0,0,623.667,549.388Z" data-name="Path 335" opacity=".66" transform="translate(-623.408 -545.109)"/><path id="Path_336" fill="url(#linear-gradient)" d="M624.067,547.9a3.474,3.474,0,0,0-.359,2.861,1.926,1.926,0,0,0,2.932,1.182,2.79,2.79,0,0,0,.864-.869,2.83,2.83,0,0,1-.9.927,1.926,1.926,0,0,1-2.934-1.182A3.48,3.48,0,0,1,624.067,547.9Z" data-name="Path 336" opacity=".66" transform="translate(-623.408 -546.542)"/><path id="Path_337" fill="url(#linear-gradient)" d="M627.867,546.912a1.927,1.927,0,0,0-2.933-1.183,3.293,3.293,0,0,0-1.422,2.681,3.306,3.306,0,0,1,1.422-2.808,1.926,1.926,0,0,1,2.933,1.182,3.181,3.181,0,0,1,.158,1.107A3.16,3.16,0,0,0,627.867,546.912Z" data-name="Path 337" opacity=".66" transform="translate(-623.411 -545.109)"/></g><g id="Group_249" data-name="Group 249" transform="translate(62.508 79.541)"><path id="Path_338" fill="url(#linear-gradient)" d="M602.18,579.826a2.043,2.043,0,0,0,3.111,1.255,3.577,3.577,0,0,0,1.341-4.017,2.043,2.043,0,0,0-3.112-1.253A3.574,3.574,0,0,0,602.18,579.826Z" data-name="Path 338" opacity=".66" transform="translate(-602.009 -575.469)"/><path id="Path_339" fill="url(#linear-gradient)" d="M602.385,579.952a1.927,1.927,0,0,0,2.934,1.183,3.37,3.37,0,0,0,1.264-3.788,1.927,1.927,0,0,0-2.933-1.183A3.375,3.375,0,0,0,602.385,579.952Z" data-name="Path 339" opacity=".66" transform="translate(-602.127 -575.674)"/><path id="Path_340" fill="url(#linear-gradient)" d="M602.785,578.467a3.473,3.473,0,0,0-.36,2.86,1.927,1.927,0,0,0,2.933,1.183,2.811,2.811,0,0,0,.864-.868,2.826,2.826,0,0,1-.9.927,1.927,1.927,0,0,1-2.934-1.183A3.474,3.474,0,0,1,602.785,578.467Z" data-name="Path 340" opacity=".66" transform="translate(-602.127 -577.107)"/><path id="Path_341" fill="url(#linear-gradient)" d="M606.584,577.476a1.926,1.926,0,0,0-2.933-1.183,3.293,3.293,0,0,0-1.422,2.68,3.311,3.311,0,0,1,1.422-2.809,1.927,1.927,0,0,1,2.933,1.183,3.183,3.183,0,0,1,.158,1.106A3.134,3.134,0,0,0,606.584,577.476Z" data-name="Path 341" opacity=".66" transform="translate(-602.129 -575.674)"/></g><g id="Group_250" data-name="Group 250" transform="translate(68.208 76.089)"><path id="Path_342" fill="url(#linear-gradient)" d="M614.743,572.218a2.044,2.044,0,0,0,3.111,1.254,3.576,3.576,0,0,0,1.34-4.018,2.044,2.044,0,0,0-3.112-1.254A3.574,3.574,0,0,0,614.743,572.218Z" data-name="Path 342" opacity=".66" transform="translate(-614.572 -567.861)"/><path id="Path_343" fill="url(#linear-gradient)" d="M614.949,572.344a1.927,1.927,0,0,0,2.933,1.183,3.373,3.373,0,0,0,1.264-3.787,1.927,1.927,0,0,0-2.934-1.183A3.372,3.372,0,0,0,614.949,572.344Z" data-name="Path 343" opacity=".66" transform="translate(-614.69 -568.065)"/><path id="Path_344" fill="url(#linear-gradient)" d="M615.349,570.857a3.474,3.474,0,0,0-.36,2.86,1.926,1.926,0,0,0,2.933,1.183,2.814,2.814,0,0,0,.865-.869,2.831,2.831,0,0,1-.9.927,1.927,1.927,0,0,1-2.933-1.183A3.477,3.477,0,0,1,615.349,570.857Z" data-name="Path 344" opacity=".66" transform="translate(-614.691 -569.498)"/><path id="Path_345" fill="url(#linear-gradient)" d="M619.15,569.867a1.928,1.928,0,0,0-2.934-1.183,3.293,3.293,0,0,0-1.422,2.681,3.3,3.3,0,0,1,1.422-2.809,1.927,1.927,0,0,1,2.934,1.183,3.181,3.181,0,0,1,.157,1.106A3.18,3.18,0,0,0,619.15,569.867Z" data-name="Path 345" opacity=".66" transform="translate(-614.693 -568.065)"/></g><g id="Group_251" data-name="Group 251" transform="translate(73.878 72.461)"><path id="Path_346" fill="url(#linear-gradient)" d="M627.239,564.223a2.043,2.043,0,0,0,3.111,1.255,3.576,3.576,0,0,0,1.341-4.017,2.044,2.044,0,0,0-3.112-1.254A3.575,3.575,0,0,0,627.239,564.223Z" data-name="Path 346" opacity=".66" transform="translate(-627.069 -559.866)"/><path id="Path_347" fill="url(#linear-gradient)" d="M627.446,564.349a1.926,1.926,0,0,0,2.933,1.182,3.372,3.372,0,0,0,1.264-3.787,1.926,1.926,0,0,0-2.933-1.182A3.372,3.372,0,0,0,627.446,564.349Z" data-name="Path 347" opacity=".66" transform="translate(-627.187 -560.071)"/><path id="Path_348" fill="url(#linear-gradient)" d="M627.845,562.863a3.476,3.476,0,0,0-.36,2.861,1.926,1.926,0,0,0,2.933,1.182,2.8,2.8,0,0,0,.865-.867,2.818,2.818,0,0,1-.9.926,1.926,1.926,0,0,1-2.933-1.182A3.478,3.478,0,0,1,627.845,562.863Z" data-name="Path 348" opacity=".66" transform="translate(-627.187 -561.503)"/><path id="Path_349" fill="url(#linear-gradient)" d="M631.646,561.873a1.927,1.927,0,0,0-2.933-1.183,3.292,3.292,0,0,0-1.422,2.681,3.308,3.308,0,0,1,1.422-2.808,1.926,1.926,0,0,1,2.933,1.182,3.178,3.178,0,0,1,.158,1.106A3.167,3.167,0,0,0,631.646,561.873Z" data-name="Path 349" opacity=".66" transform="translate(-627.19 -560.071)"/></g><g id="Group_253" data-name="Group 253" transform="translate(75.801 79.442)"><path id="Path_350" fill="url(#linear-gradient)" d="M631.478,579.608a2.043,2.043,0,0,0,3.11,1.255,3.578,3.578,0,0,0,1.341-4.017,2.044,2.044,0,0,0-3.112-1.255A3.576,3.576,0,0,0,631.478,579.608Z" data-name="Path 350" opacity=".66" transform="translate(-631.307 -575.251)"/><path id="Path_351" fill="url(#linear-gradient)" d="M631.684,579.735a1.927,1.927,0,0,0,2.934,1.183,3.374,3.374,0,0,0,1.264-3.787,1.927,1.927,0,0,0-2.934-1.183A3.373,3.373,0,0,0,631.684,579.735Z" data-name="Path 351" opacity=".66" transform="translate(-631.425 -575.456)"/><path id="Path_352" fill="url(#linear-gradient)" d="M632.084,578.248a3.476,3.476,0,0,0-.36,2.861,1.926,1.926,0,0,0,2.933,1.183,2.817,2.817,0,0,0,.865-.868,2.83,2.83,0,0,1-.9.927,1.927,1.927,0,0,1-2.934-1.183A3.476,3.476,0,0,1,632.084,578.248Z" data-name="Path 352" opacity=".66" transform="translate(-631.425 -576.888)"/><path id="Path_353" fill="url(#linear-gradient)" d="M635.883,577.259a1.926,1.926,0,0,0-2.934-1.183,3.292,3.292,0,0,0-1.422,2.681,3.31,3.31,0,0,1,1.422-2.809,1.927,1.927,0,0,1,2.934,1.183,3.186,3.186,0,0,1,.158,1.106A3.16,3.16,0,0,0,635.883,577.259Z" data-name="Path 353" opacity=".66" transform="translate(-631.428 -575.456)"/><g id="Group_252" data-name="Group 252" transform="translate(1.288 1.5)"><path id="Path_354" fill="#c5ccd0" d="M636.062,581.073l-.351-.669-.452.277.35.67-.216.133-.351-.669-.443.271-.079-.261.4-.245-.3-.57-.292.179-.079-.261.249-.153-.352-.675.217-.133.352.674.453-.278-.352-.675.216-.132.353.674.436-.268.079.261-.393.241.3.571.287-.175.079.26-.243.15.351.669Zm-.772-1.475-.453.279.3.57.451-.278Z" data-name="Path 354" transform="translate(-634.145 -578.557)"/></g></g><g id="Group_254" data-name="Group 254" transform="translate(70.131 83.038)"><path id="Path_355" fill="url(#linear-gradient)" d="M618.98,587.534a2.044,2.044,0,0,0,3.111,1.254,3.576,3.576,0,0,0,1.34-4.017,2.043,2.043,0,0,0-3.111-1.254A3.575,3.575,0,0,0,618.98,587.534Z" data-name="Path 355" opacity=".66" transform="translate(-618.81 -583.176)"/><path id="Path_356" fill="url(#linear-gradient)" d="M619.187,587.66a1.926,1.926,0,0,0,2.933,1.182,3.372,3.372,0,0,0,1.264-3.787,1.927,1.927,0,0,0-2.934-1.183A3.371,3.371,0,0,0,619.187,587.66Z" data-name="Path 356" opacity=".66" transform="translate(-618.928 -583.381)"/><path id="Path_357" fill="url(#linear-gradient)" d="M619.587,586.174a3.475,3.475,0,0,0-.36,2.86,1.926,1.926,0,0,0,2.933,1.182,2.807,2.807,0,0,0,.864-.868,2.837,2.837,0,0,1-.9.926,1.926,1.926,0,0,1-2.933-1.182A3.475,3.475,0,0,1,619.587,586.174Z" data-name="Path 357" opacity=".66" transform="translate(-618.928 -584.814)"/><path id="Path_358" fill="url(#linear-gradient)" d="M623.387,585.183A1.927,1.927,0,0,0,620.454,584a3.292,3.292,0,0,0-1.422,2.681,3.3,3.3,0,0,1,1.422-2.809,1.927,1.927,0,0,1,2.934,1.183,3.193,3.193,0,0,1,.158,1.106A3.162,3.162,0,0,0,623.387,585.183Z" data-name="Path 358" opacity=".66" transform="translate(-618.931 -583.381)"/></g><g id="Group_256" data-name="Group 256" transform="translate(64.531 86.489)"><path id="Path_359" fill="url(#linear-gradient)" d="M606.638,595.142a2.044,2.044,0,0,0,3.111,1.255,3.576,3.576,0,0,0,1.34-4.017,2.043,2.043,0,0,0-3.111-1.255A3.577,3.577,0,0,0,606.638,595.142Z" data-name="Path 359" opacity=".66" transform="translate(-606.468 -590.784)"/><path id="Path_360" fill="url(#linear-gradient)" d="M606.845,595.269a1.927,1.927,0,0,0,2.933,1.182,3.373,3.373,0,0,0,1.263-3.787,1.926,1.926,0,0,0-2.933-1.182A3.372,3.372,0,0,0,606.845,595.269Z" data-name="Path 360" opacity=".66" transform="translate(-606.586 -590.989)"/><path id="Path_361" fill="url(#linear-gradient)" d="M607.245,593.781a3.478,3.478,0,0,0-.36,2.862,1.927,1.927,0,0,0,2.933,1.182,2.8,2.8,0,0,0,.864-.868,2.834,2.834,0,0,1-.9.927,1.926,1.926,0,0,1-2.933-1.182A3.477,3.477,0,0,1,607.245,593.781Z" data-name="Path 361" opacity=".66" transform="translate(-606.587 -592.421)"/><path id="Path_362" fill="url(#linear-gradient)" d="M611.044,592.791a1.927,1.927,0,0,0-2.933-1.182,3.292,3.292,0,0,0-1.422,2.681,3.3,3.3,0,0,1,1.422-2.808,1.926,1.926,0,0,1,2.933,1.182,3.176,3.176,0,0,1,.158,1.107A3.173,3.173,0,0,0,611.044,592.791Z" data-name="Path 362" opacity=".66" transform="translate(-606.589 -590.989)"/><g id="Group_255" data-name="Group 255" transform="translate(1.598 2.003)"><path id="Path_363" fill="#c5ccd0" d="M611,596.148a4.177,4.177,0,0,1,.534.291l-.2.4a3.414,3.414,0,0,1-.474-.414c-.043.324-.088.586-.131.784l-.343-.068a6.964,6.964,0,0,1,.232-.762,2.619,2.619,0,0,1-.611.192l-.015-.456a3.357,3.357,0,0,1,.616-.065q-.17-.382-.26-.652l.328-.2c.036.126.09.364.163.715a5.272,5.272,0,0,1,.442-.589l.223.328C611.345,595.818,611.176,595.983,611,596.148Z" data-name="Path 363" transform="translate(-609.991 -595.199)"/></g></g><g id="Group_257" data-name="Group 257" transform="translate(56.98 60.149)"><path id="Path_364" fill="url(#linear-gradient)" d="M589.94,535.665a1.377,1.377,0,0,0,2.1.846,2.412,2.412,0,0,0,.9-2.707,1.377,1.377,0,0,0-2.1-.846A2.411,2.411,0,0,0,589.94,535.665Z" data-name="Path 364" opacity=".66" transform="translate(-589.825 -532.729)"/><path id="Path_365" fill="url(#linear-gradient)" d="M590.077,535.751a1.3,1.3,0,0,0,1.977.8,2.272,2.272,0,0,0,.851-2.552,1.3,1.3,0,0,0-1.976-.8A2.271,2.271,0,0,0,590.077,535.751Z" data-name="Path 365" opacity=".66" transform="translate(-589.903 -532.867)"/><path id="Path_366" fill="url(#linear-gradient)" d="M590.347,534.748a2.338,2.338,0,0,0-.242,1.927,1.3,1.3,0,0,0,1.976.8,1.892,1.892,0,0,0,.582-.586,1.9,1.9,0,0,1-.609.625,1.3,1.3,0,0,1-1.977-.8A2.341,2.341,0,0,1,590.347,534.748Z" data-name="Path 366" opacity=".66" transform="translate(-589.904 -533.832)"/><path id="Path_367" fill="url(#linear-gradient)" d="M592.908,534.082a1.3,1.3,0,0,0-1.976-.8,2.218,2.218,0,0,0-.958,1.807,2.226,2.226,0,0,1,.958-1.893,1.3,1.3,0,0,1,1.976.8,2.154,2.154,0,0,1,.107.746A2.106,2.106,0,0,0,592.908,534.082Z" data-name="Path 367" opacity=".66" transform="translate(-589.906 -532.867)"/></g><g id="Group_258" data-name="Group 258" transform="translate(48.518 8.19)"><path id="Path_368" fill="url(#linear-gradient)" d="M571.35,422.724a2.118,2.118,0,0,0,3.225,1.3,3.706,3.706,0,0,0,1.39-4.163,2.118,2.118,0,0,0-3.225-1.3A3.707,3.707,0,0,0,571.35,422.724Z" data-name="Path 368" opacity=".66" transform="translate(-571.174 -418.207)"/><path id="Path_369" fill="url(#linear-gradient)" d="M571.566,422.854a2,2,0,0,0,3.04,1.226,3.5,3.5,0,0,0,1.309-3.926,2,2,0,0,0-3.04-1.226A3.5,3.5,0,0,0,571.566,422.854Z" data-name="Path 369" opacity=".66" transform="translate(-571.297 -418.419)"/><path id="Path_370" fill="url(#linear-gradient)" d="M571.98,421.315a3.6,3.6,0,0,0-.373,2.964,2,2,0,0,0,3.04,1.226,2.9,2.9,0,0,0,.9-.9,2.927,2.927,0,0,1-.935.961,2,2,0,0,1-3.04-1.226A3.6,3.6,0,0,1,571.98,421.315Z" data-name="Path 370" opacity=".66" transform="translate(-571.298 -419.905)"/><path id="Path_371" fill="url(#linear-gradient-75)" d="M575.918,420.287a2,2,0,0,0-3.04-1.226,3.411,3.411,0,0,0-1.474,2.779,3.429,3.429,0,0,1,1.474-2.912,2,2,0,0,1,3.04,1.226,3.317,3.317,0,0,1,.165,1.147A3.267,3.267,0,0,0,575.918,420.287Z" data-name="Path 371" transform="translate(-571.299 -418.419)"/></g><g id="Group_259" data-name="Group 259" transform="translate(70.086 52.142)"><path id="Path_372" fill="url(#linear-gradient)" d="M618.826,518.018a1.378,1.378,0,0,0,2.1.845,2.412,2.412,0,0,0,.9-2.707,1.378,1.378,0,0,0-2.1-.846A2.412,2.412,0,0,0,618.826,518.018Z" data-name="Path 372" opacity=".66" transform="translate(-618.711 -515.081)"/><path id="Path_373" fill="url(#linear-gradient)" d="M618.964,518.1a1.3,1.3,0,0,0,1.977.8,2.272,2.272,0,0,0,.852-2.552,1.3,1.3,0,0,0-1.976-.8A2.274,2.274,0,0,0,618.964,518.1Z" data-name="Path 373" opacity=".66" transform="translate(-618.79 -515.219)"/><path id="Path_374" fill="url(#linear-gradient)" d="M619.234,517.1a2.342,2.342,0,0,0-.243,1.927,1.3,1.3,0,0,0,1.977.8,1.882,1.882,0,0,0,.582-.585,1.894,1.894,0,0,1-.609.625,1.3,1.3,0,0,1-1.976-.8A2.344,2.344,0,0,1,619.234,517.1Z" data-name="Path 374" opacity=".66" transform="translate(-618.79 -516.185)"/><path id="Path_375" fill="url(#linear-gradient)" d="M621.795,516.433a1.3,1.3,0,0,0-1.976-.8,2.217,2.217,0,0,0-.959,1.807,2.228,2.228,0,0,1,.959-1.893,1.3,1.3,0,0,1,1.976.8,2.146,2.146,0,0,1,.106.745A2.122,2.122,0,0,0,621.795,516.433Z" data-name="Path 375" opacity=".66" transform="translate(-618.792 -515.219)"/></g><g id="Group_260" data-name="Group 260" transform="translate(52.916 41.616)"><path id="Path_376" fill="url(#linear-gradient)" d="M618.009,496.108c-.019.567-.01,1.9-.595,2.413a2.135,2.135,0,0,1-2.75-.6,4.218,4.218,0,0,1,0-3.779c.547-1.238,1.431-2.477,2.17-2.236S618.089,493.776,618.009,496.108Z" data-name="Path 376" opacity=".66" transform="translate(-599.086 -491.88)"/><path id="Path_377" fill="url(#linear-gradient)" d="M584.493,514.338a1.684,1.684,0,0,1,1.364,1.523c.254,1.411-.491,3.265-1.7,3.709s-2.014-.3-2.583-1.68-1.015-3.108-.444-3.552S583.224,514.084,584.493,514.338Z" data-name="Path 377" opacity=".66" transform="translate(-580.867 -504.003)"/><path id="Path_378" fill="url(#linear-gradient)" d="M584.547,514.846a1.564,1.564,0,0,1,1.269,1.417c.236,1.312-.457,3.038-1.578,3.451s-1.874-.28-2.4-1.564-.944-2.891-.413-3.3S583.367,514.609,584.547,514.846Z" data-name="Path 378" opacity=".66" transform="translate(-581.034 -504.29)"/><path id="Path_379" fill="url(#linear-gradient)" d="M585.837,516.413A1.566,1.566,0,0,0,584.568,515c-1.165-.233-2.557-.407-3.1-.015a.483.483,0,0,1,.115-.136c.531-.414,1.947-.237,3.127,0a1.565,1.565,0,0,1,1.269,1.417,3.652,3.652,0,0,1-.9,3A3.7,3.7,0,0,0,585.837,516.413Z" data-name="Path 379" opacity=".66" transform="translate(-581.193 -504.29)"/><path id="Path_380" fill="url(#linear-gradient)" d="M618.173,496.455c-.018.52-.009,1.742-.546,2.214a1.959,1.959,0,0,1-2.522-.546,3.871,3.871,0,0,1,0-3.468c.5-1.136,1.312-2.272,1.991-2.05S618.247,494.316,618.173,496.455Z" data-name="Path 380" opacity=".66" transform="translate(-599.347 -492.261)"/><path id="Path_381" fill="url(#linear-gradient)" d="M617.2,492.8c-.678-.22-1.49.916-1.991,2.052a4.142,4.142,0,0,0-.2,3.074,3.991,3.991,0,0,1,.1-3.273c.5-1.136,1.312-2.272,1.991-2.05a1.255,1.255,0,0,1,.659.751A1.085,1.085,0,0,0,617.2,492.8Z" data-name="Path 381" opacity=".66" transform="translate(-599.352 -492.261)"/></g><path id="Path_382" fill="url(#linear-gradient)" d="M585.388,449.919a1.752,1.752,0,0,1,2.688,1.161c.669,2.306,2.1,8.439,2.1,8.439a3.629,3.629,0,0,1-1.807,4.04c-2.527,1.439-11.626,7.037-11.626,7.037a1.834,1.834,0,0,1-2.675-1.273c-.645-2.251-2.323-8.357-2.323-8.357a2.646,2.646,0,0,1,1.143-3.448C575.06,456.263,585.388,449.919,585.388,449.919Z" data-name="Path 382" opacity=".66" transform="translate(-522.832 -427.186)"/><path id="Path_383" fill="url(#linear-gradient)" d="M608.258,470.285a7.018,7.018,0,0,1-.807,5.834,7.8,7.8,0,0,0,.475-5.834,18.376,18.376,0,0,0-1.736-3.472c-.766-.954-.448-2.787.555-4.5a15.941,15.941,0,0,0,2.279-6.334c.234-2.394-1.115-8.133-1.9-11.014s-2.533-8.5-3.114-9.364a3.032,3.032,0,0,0-2.5-1.371,3.076,3.076,0,0,1,2.828,1.371c.581.859,2.324,6.482,3.114,9.364s2.138,8.62,1.905,11.014a15.961,15.961,0,0,1-2.28,6.334c-1,1.709-1.321,3.543-.554,4.5A18.433,18.433,0,0,1,608.258,470.285Z" data-name="Path 383" opacity=".66" transform="translate(-539.228 -418.771)"/><path id="Path_384" fill="url(#linear-gradient)" d="M579.982,509c1.183.121,3.758.079,4.557,1.506-1.027-1-3.179-.973-4.231-1.08a3.563,3.563,0,0,1-2.954-1.585A3.7,3.7,0,0,0,579.982,509Z" data-name="Path 384" opacity=".66" transform="translate(-526.032 -458.984)"/><g id="Group_263" data-name="Group 263" transform="translate(60.226 49.801)"><path id="Path_385" fill="url(#linear-gradient)" d="M597.246,516.728c.764,2.273,2.94,3.151,4.859,1.958a5.585,5.585,0,0,0,2.094-6.274c-.764-2.275-2.94-3.153-4.859-1.96A5.588,5.588,0,0,0,597.246,516.728Z" data-name="Path 385" opacity=".66" transform="translate(-596.98 -509.92)"/><path id="Path_386" fill="url(#linear-gradient)" d="M599.34,510.455a3.105,3.105,0,0,1,2.953-.278,3.167,3.167,0,0,0-2.567.419,5.587,5.587,0,0,0-2.093,6.276,3.614,3.614,0,0,0,1.905,2.236,3.506,3.506,0,0,1-2.291-2.377A5.588,5.588,0,0,1,599.34,510.455Z" data-name="Path 386" opacity=".66" transform="translate(-596.98 -509.923)"/><path id="Path_387" fill="url(#linear-gradient)" d="M603.332,513.871c-.244-.138.145-1.4-.371-1.432a2.085,2.085,0,0,0-1.4.431c-.429.306-.97.859-.884,1.387s.478.813.221,1.168-1.13.332-1.044,1.328.283,1.757,1.014,1.923.621-.485.891-.3.2,1.7,1,1.561a2.344,2.344,0,0,0,1.756-1.941c-.049-.787-.645-1.272-.153-1.653s1.063-.08,1.123-1.112c.064-1.086-.281-2.138-1.043-2S603.71,514.085,603.332,513.871Z" data-name="Path 387" opacity=".66" transform="translate(-598.546 -511.293)"/><g id="Group_261" data-name="Group 261" transform="translate(1.301 4.085)"><path id="Path_388" fill="url(#linear-gradient)" d="M609.481,520.035a.435.435,0,0,1,.191-.4c.412-.319.879-.162,1.055-.709-.107.851-.643.6-1.109.962A.544.544,0,0,0,609.481,520.035Z" data-name="Path 388" opacity=".66" transform="translate(-605.109 -518.924)"/><path id="Path_389" fill="url(#linear-gradient)" d="M599.907,520.867a1.362,1.362,0,0,0,0,.24c.086.995.283,1.758,1.014,1.923s.62-.484.891-.3.2,1.7,1,1.56a2.528,2.528,0,0,0,1.7-1.544,2.434,2.434,0,0,1-1.754,1.8c-.8.135-.726-1.376-1-1.561s-.16.467-.89.3-.928-.927-1.014-1.923A1.112,1.112,0,0,1,599.907,520.867Z" data-name="Path 389" opacity=".66" transform="translate(-599.846 -519.986)"/></g><g id="Group_262" data-name="Group 262" transform="translate(1.315 1.14)"><path id="Path_390" fill="url(#linear-gradient)" d="M600.909,519.041a.4.4,0,0,1-.084.27c-.192.265-.722.32-.946.739C599.982,519.373,600.677,519.35,600.909,519.041Z" data-name="Path 390" opacity=".66" transform="translate(-599.878 -516.043)"/><path id="Path_391" fill="url(#linear-gradient)" d="M609.512,523.43c-.045-.717-.542-1.183-.256-1.549.011.322.311.724.345,1.274a1.217,1.217,0,0,1-.112.547A1.008,1.008,0,0,0,609.512,523.43Z" data-name="Path 391" opacity=".66" transform="translate(-604.953 -517.595)"/><path id="Path_392" fill="url(#linear-gradient)" d="M606.394,515.5c.064-1.084-.281-2.138-1.043-2s-.725.86-1.1.645c-.244-.138.145-1.4-.37-1.432a2.089,2.089,0,0,0-1.4.43,2.5,2.5,0,0,0-.791.877,2.389,2.389,0,0,1,2.281-1.583c.516.036.127,1.294.371,1.432.378.214.342-.51,1.1-.645s1.107.917,1.043,2a1.32,1.32,0,0,1-.121.533A1.939,1.939,0,0,0,606.394,515.5Z" data-name="Path 392" opacity=".66" transform="translate(-600.865 -512.433)"/></g></g><g id="Group_264" data-name="Group 264" transform="translate(60.936 67.341)"><path id="Path_393" fill="#c5ccd0" d="M599.8,551.153l-.255.152-.509-2a2.413,2.413,0,0,1-.187.361,2.937,2.937,0,0,1-.229.324l-.077-.3a2.662,2.662,0,0,0,.3-.525,1.848,1.848,0,0,0,.141-.478l.165-.1Z" data-name="Path 393" transform="translate(-598.544 -548.58)"/></g><g id="Group_265" data-name="Group 265" transform="translate(66.386 63.936)"><path id="Path_394" fill="#c5ccd0" d="M612.3,543.07l.076.3-1.38.821a.736.736,0,0,1-.025-.235,1.731,1.731,0,0,1,.082-.441,4.771,4.771,0,0,1,.237-.589,5.238,5.238,0,0,0,.322-.816.933.933,0,0,0,.024-.45.348.348,0,0,0-.189-.25.333.333,0,0,0-.317.041.6.6,0,0,0-.261.313.74.74,0,0,0-.018.445l-.271.123a1.171,1.171,0,0,1,.064-.673,1.014,1.014,0,0,1,.426-.472.563.563,0,0,1,.527-.079.556.556,0,0,1,.3.4,1.028,1.028,0,0,1,.025.331,1.76,1.76,0,0,1-.091.415,7.342,7.342,0,0,1-.281.686q-.17.377-.214.5a1.733,1.733,0,0,0-.065.235Z" data-name="Path 394" transform="translate(-610.557 -541.075)"/></g><g id="Group_266" data-name="Group 266" transform="translate(72.044 60.348)"><path id="Path_395" fill="#c5ccd0" d="M623.32,535.552l.246-.2a.543.543,0,0,0,.247.3.313.313,0,0,0,.288-.036.629.629,0,0,0,.266-.336.745.745,0,0,0,.029-.454.408.408,0,0,0-.205-.289.334.334,0,0,0-.329.035.883.883,0,0,0-.172.142l-.041-.292.042-.021a.745.745,0,0,0,.269-.281.521.521,0,0,0,.048-.4.314.314,0,0,0-.167-.23.287.287,0,0,0-.276.033.527.527,0,0,0-.22.264.851.851,0,0,0-.04.423l-.271.1a1.217,1.217,0,0,1,.09-.618.913.913,0,0,1,.37-.421.632.632,0,0,1,.338-.1.418.418,0,0,1,.282.114.573.573,0,0,1,.159.285.75.75,0,0,1,0,.347.891.891,0,0,1-.16.343.38.38,0,0,1,.343.047.6.6,0,0,1,.207.352,1.094,1.094,0,0,1-.055.688,1.055,1.055,0,0,1-.445.533.557.557,0,0,1-.508.071A.61.61,0,0,1,623.32,535.552Z" data-name="Path 395" transform="translate(-623.026 -533.168)"/></g><g id="Group_267" data-name="Group 267" transform="translate(62.682 74.212)"><path id="Path_396" fill="#c5ccd0" d="M603.526,566.439l-.156-.613-.9.539-.073-.288.531-2.228.209-.124.421,1.659.282-.167.073.288-.282.169.156.613Zm-.228-.9-.293-1.155-.361,1.544Z" data-name="Path 396" transform="translate(-602.393 -563.725)"/></g><g id="Group_268" data-name="Group 268" transform="translate(68.23 70.671)"><path id="Path_397" fill="#c5ccd0" d="M614.843,558.542l.262-.188a.468.468,0,0,0,.231.279.316.316,0,0,0,.294-.034.639.639,0,0,0,.269-.358.92.92,0,0,0,.014-.531.507.507,0,0,0-.23-.352.36.36,0,0,0-.363.037.617.617,0,0,0-.206.2.773.773,0,0,0-.111.272l-.25.1-.131-1.436,1.038-.617.076.3-.833.5.062.756a.988.988,0,0,1,.353-.4.522.522,0,0,1,.52-.043.691.691,0,0,1,.339.486,1.331,1.331,0,0,1-.013.7,1.033,1.033,0,0,1-.47.636.578.578,0,0,1-.515.081A.6.6,0,0,1,614.843,558.542Z" data-name="Path 397" transform="translate(-614.621 -555.92)"/></g><g id="Group_269" data-name="Group 269" transform="translate(73.85 67.228)"><path id="Path_398" fill="#c5ccd0" d="M628.271,548.712l-.248.176a.473.473,0,0,0-.165-.211.28.28,0,0,0-.291.018.515.515,0,0,0-.193.212,1.091,1.091,0,0,0-.111.43,2.181,2.181,0,0,0,.078.636,1.1,1.1,0,0,1,.161-.393.844.844,0,0,1,.26-.25.478.478,0,0,1,.5-.028.712.712,0,0,1,.331.491,1.327,1.327,0,0,1,.029.5,1.149,1.149,0,0,1-.153.456.89.89,0,0,1-.308.31.54.54,0,0,1-.6.022,1.346,1.346,0,0,1-.444-.832,2.359,2.359,0,0,1-.05-1.214.994.994,0,0,1,.451-.606.5.5,0,0,1,.446-.072A.563.563,0,0,1,628.271,548.712Zm-.766,1.729a.724.724,0,0,0,.134.278.331.331,0,0,0,.447.083.557.557,0,0,0,.238-.327.883.883,0,0,0,.007-.506.519.519,0,0,0-.221-.35.312.312,0,0,0-.33.02.608.608,0,0,0-.256.328A.792.792,0,0,0,627.5,550.441Z" data-name="Path 398" transform="translate(-627.008 -548.331)"/></g><g id="Group_270" data-name="Group 270" transform="translate(64.096 80.691)"><path id="Path_399" fill="#c5ccd0" d="M605.585,579.112l-.076-.3,1.351-.8.062.245a5.32,5.32,0,0,0-.219.927,6.121,6.121,0,0,0-.078,1.068,4.36,4.36,0,0,0,.08.763l-.264.157a4.17,4.17,0,0,1-.088-.788,5.606,5.606,0,0,1,.057-.984,5.36,5.36,0,0,1,.2-.89Z" data-name="Path 399" transform="translate(-605.509 -578.004)"/></g><g id="Group_271" data-name="Group 271" transform="translate(69.916 77.502)"><path id="Path_400" fill="#c5ccd0" d="M618.811,572.432a.369.369,0,0,1-.289-.063.5.5,0,0,1-.158-.273.937.937,0,0,1,.433-1.017.479.479,0,0,1,.776.309.71.71,0,0,1,0,.354.818.818,0,0,1-.179.342.435.435,0,0,1,.356.073.619.619,0,0,1,.2.349,1.062,1.062,0,0,1-.05.665,1.031,1.031,0,0,1-.441.521.58.58,0,0,1-.555.073.617.617,0,0,1-.332-.447.949.949,0,0,1,0-.48A.876.876,0,0,1,618.811,572.432Zm-.186-.5a.33.33,0,0,0,.17.24.286.286,0,0,0,.277-.032.5.5,0,0,0,.213-.259.548.548,0,0,0,.024-.336.327.327,0,0,0-.171-.234.275.275,0,0,0-.272.028.5.5,0,0,0-.214.26A.534.534,0,0,0,618.625,571.929Zm.217,1.233a.542.542,0,0,0,.117.229.289.289,0,0,0,.2.1.412.412,0,0,0,.239-.062.637.637,0,0,0,.265-.326.71.71,0,0,0,.026-.441.422.422,0,0,0-.218-.3.358.358,0,0,0-.346.034.62.62,0,0,0-.262.326A.714.714,0,0,0,618.842,573.162Z" data-name="Path 400" transform="translate(-618.338 -570.975)"/></g><g id="Group_272" data-name="Group 272" transform="translate(71.881 84.805)"><path id="Path_401" fill="#c5ccd0" d="M622.778,588.878a2.993,2.993,0,0,1-.109-.777,1.386,1.386,0,0,1,.118-.562.846.846,0,0,1,.34-.376.562.562,0,0,1,.315-.092.433.433,0,0,1,.271.114,1.07,1.07,0,0,1,.225.3,2.727,2.727,0,0,1,.2.579,2.983,2.983,0,0,1,.108.773,1.364,1.364,0,0,1-.116.563.844.844,0,0,1-.342.377.473.473,0,0,1-.541.017A1.58,1.58,0,0,1,622.778,588.878Zm.263-.157a1.6,1.6,0,0,0,.333.768.286.286,0,0,0,.35.032.577.577,0,0,0,.244-.386,2.136,2.136,0,0,0-.092-.911,1.591,1.591,0,0,0-.334-.769.286.286,0,0,0-.352-.03.529.529,0,0,0-.236.352A2.172,2.172,0,0,0,623.041,588.721Z" data-name="Path 401" transform="translate(-622.668 -587.071)"/></g><g id="Group_273" data-name="Group 273" transform="translate(75.523 73.897)"><path id="Path_402" fill="#c5ccd0" d="M631.057,565.474l.239-.175a.417.417,0,0,0,.2.238.282.282,0,0,0,.25-.038.551.551,0,0,0,.191-.19.829.829,0,0,0,.1-.264,1.541,1.541,0,0,0,.02-.357,1.973,1.973,0,0,0-.059-.407c0-.015-.009-.035-.017-.062a1.058,1.058,0,0,1-.148.369.784.784,0,0,1-.264.265.481.481,0,0,1-.5.03.72.72,0,0,1-.333-.5,1.231,1.231,0,0,1,.029-.74.954.954,0,0,1,.408-.516.586.586,0,0,1,.406-.087.559.559,0,0,1,.354.231,1.937,1.937,0,0,1,.269.668,3.034,3.034,0,0,1,.112.835,1.4,1.4,0,0,1-.146.6.965.965,0,0,1-.364.392.5.5,0,0,1-.442.071A.563.563,0,0,1,631.057,565.474Zm.764-1.756a.538.538,0,0,0-.227-.361.3.3,0,0,0-.322.01.617.617,0,0,0-.254.349.89.89,0,0,0-.014.519.465.465,0,0,0,.22.326.332.332,0,0,0,.336-.024.592.592,0,0,0,.254-.328A.858.858,0,0,0,631.821,563.718Z" data-name="Path 402" transform="translate(-630.694 -563.031)"/></g></g><path id="Path_403" fill="url(#linear-gradient)" d="M600.239,676.623l24.931-14.762-1.946-3.177-24.93,14.762Z" data-name="Path 403" opacity=".66" transform="translate(-537.471 -541.388)"/></g></g></g></g></svg>