<svg xmlns="http://www.w3.org/2000/svg" xmlns:xlink="http://www.w3.org/1999/xlink" width="85.918" height="59.94" viewBox="0 0 85.918 59.94"><defs><linearGradient id="linear-gradient" x1="3.474" x2="-2.098" y1="-4.6" y2="-2.639" gradientUnits="objectBoundingBox"><stop offset="0" stop-color="#4f6a7b"/><stop offset="1" stop-color="#53c6e2"/></linearGradient></defs><g id="partner2" transform="translate(-558.499 -440.04)"><path id="Объединение_10" fill="url(#linear-gradient)" stroke="rgba(0,0,0,0)" stroke-width="1" d="M1334.649-13111.493h-26.063a4.168,4.168,0,0,1-4.161-4.162v-3.573c0-9.155,4.284-14.2,13.882-16.309.5-.7.843-2.9.9-4.822a17.573,17.573,0,0,1-5.933-8.818,1.611,1.611,0,0,1-.912-1.134c-1.755-8.039-1.4-13.234,1.1-16.349,2.013-2.5,5.292-3.669,10.58-3.765a3.378,3.378,0,0,1,.41-.007,3.376,3.376,0,0,1,.41.007c5.312.1,8.607,1.272,10.63,3.788,2.522,3.13,2.876,8.336,1.114,16.385a1.608,1.608,0,0,1-.935,1.146,17.572,17.572,0,0,1-5.91,8.739c.05,1.954.39,4.129.892,4.829,9.6,2.109,13.886,7.149,13.886,16.309v3.573a4.168,4.168,0,0,1-4.161,4.162Zm1.035-11.675v9.6h4.694a2.092,2.092,0,0,0,2.092-2.089v-3.573c0-8.181-3.52-12.339-12.124-14.259l-5.864,4.072-5.86-4.072c-8.6,1.92-12.124,6.078-12.124,14.259v3.573a2.091,2.091,0,0,0,2.089,2.089h4.694v-9.6a1.038,1.038,0,0,1,1.038-1.038,1.035,1.035,0,0,1,1.035,1.038v9.6h18.262v-9.6a1.035,1.035,0,0,1,1.035-1.038A1.035,1.035,0,0,1,1335.683-13123.168Zm-15.4-11.682,4.2,2.916,4.2-2.919a12.72,12.72,0,0,1-.939-4.35,8.222,8.222,0,0,1-3.259.69,8.19,8.19,0,0,1-3.259-.687A12.713,12.713,0,0,1,1320.284-13134.85Zm-3.051-23.365-1.709,7.92a1.783,1.783,0,0,1-.258.565c1.438,4.548,5.034,9.148,9.215,9.148,4.158,0,7.751-4.574,9.2-9.1a1.534,1.534,0,0,1-.222-.489c-.611-2.228-1.431-6.6-1.468-6.783-.007-.046-.013-.1-.016-.142a18.565,18.565,0,0,1-7.222-1.914l1.15,3.077a1.042,1.042,0,0,1-.287,1.141,1.033,1.033,0,0,1-1.167.139l-6.72-3.553a.552.552,0,0,0-.258-.062A.6.6,0,0,0,1317.233-13158.215Zm7.275-3.2a1.128,1.128,0,0,1,.307.116c.036.023,3.834,2.161,7.143,2.2a2.046,2.046,0,0,1,2.079,1.831c.073.387.5,2.645.942,4.621,1.163-6.264.8-10.319-1.1-12.687-1.649-2.049-4.561-2.984-9.427-3.021-4.842.036-7.738.965-9.377,3-1.877,2.334-2.241,6.337-1.117,12.511l1.325-6.154a1.044,1.044,0,0,1,.238-.466,2.632,2.632,0,0,1,3.17-.562l4.317,2.28-.559-1.5c-.017-.047-.03-.1-.043-.143a1.674,1.674,0,0,1,.449-1.53,1.807,1.807,0,0,1,1.286-.528A2.026,2.026,0,0,1,1324.508-13161.418Zm22.807,45.571a1.037,1.037,0,0,1-1.035-1.038,1.034,1.034,0,0,1,1.035-1.034h10.217v-6.994a1.035,1.035,0,0,1,1.038-1.035,1.034,1.034,0,0,1,1.035,1.035v6.994h3.285a1.327,1.327,0,0,0,1.325-1.322v-2.7a12.509,12.509,0,0,0-.919-5.137,7.521,7.521,0,0,0-.668-1.21h-.1a10.888,10.888,0,0,1-5.96-1.576,8.238,8.238,0,0,1-2.086-1.947l-.3.209a5.759,5.759,0,0,1-3.289,1.024,5.741,5.741,0,0,1-3.286-1.024l-.3-.209a8.2,8.2,0,0,1-2.472,2.182,1.009,1.009,0,0,1-.516.139,1.034,1.034,0,0,1-.9-.516,1.035,1.035,0,0,1,.377-1.414c1.854-1.074,3-2.988,3.424-5.7-2.724-2.033-4.657-6.072-4.9-9.768-.059,0-.116,0-.172,0a1.037,1.037,0,0,1-1.035-1.035,1.035,1.035,0,0,1,1.035-1.038c3.993,0,6.621-3.83,6.647-3.867a1.025,1.025,0,0,1,.777-.452,1.017,1.017,0,0,1,.84.323,14.385,14.385,0,0,0,9.638,4,1.035,1.035,0,0,1,1.035,1.038,1.037,1.037,0,0,1-1.035,1.035c-.2,0-.4-.007-.6-.014-.238,3.7-2.172,7.744-4.9,9.777a7.6,7.6,0,0,0,3.127,5.514,9.593,9.593,0,0,0,5.966,1.192c-2.492-1.7-4.77-4.627-3.523-8.778,2.935-9.784.611-15.647-2.538-17.865a5.155,5.155,0,0,0-6.075-.192,1.04,1.04,0,0,1-1.24.01,5.139,5.139,0,0,0-6.082.183c-3.153,2.218-5.477,8.081-2.539,17.865a7.111,7.111,0,0,1-.218,5.014,1.041,1.041,0,0,1-.952.618,1.029,1.029,0,0,1-.413-.086,1.034,1.034,0,0,1-.532-1.365,5.036,5.036,0,0,0,.129-3.586c-4.092-13.642,1.514-18.874,3.332-20.152a7.234,7.234,0,0,1,7.89-.559,7.245,7.245,0,0,1,7.893.559c1.815,1.278,7.421,6.511,3.328,20.152-1.6,5.348,4.816,7.579,5.09,7.672a1.041,1.041,0,0,1,.707.991,1.031,1.031,0,0,1-.724.979,15.152,15.152,0,0,1-2.264.486c.093.178.178.36.261.545a14.532,14.532,0,0,1,1.094,5.979v2.7a3.4,3.4,0,0,1-3.395,3.395Zm1.051-17.75.426.3a3.709,3.709,0,0,0,4.211,0l.43-.3a11.741,11.741,0,0,1-.787-2.488,5.54,5.54,0,0,1-1.749.294,5.54,5.54,0,0,1-1.749-.294A11.939,11.939,0,0,1,1348.366-13133.6Zm-3.973-13.578c.215,4.194,3.269,9.314,6.505,9.314s6.264-5.07,6.5-9.255a16.584,16.584,0,0,1-7.612-3.606A11.409,11.409,0,0,1,1344.393-13147.175Zm-53.675,31.325h-4.323a3.4,3.4,0,0,1-3.395-3.4v-2.693c0-7.023,3.266-10.9,10.577-12.537a9.565,9.565,0,0,0,.575-3.3,13.525,13.525,0,0,1-4.413-6.541,1.471,1.471,0,0,1-.747-.985c-1.345-6.157-1.061-10.153.892-12.58,1.577-1.96,4.119-2.879,8.2-2.951a2.75,2.75,0,0,1,.324,0,2.109,2.109,0,0,1,.324,0c4.069.072,6.6.988,8.168,2.932,1.947,2.416,2.228,6.406.886,12.551a1.474,1.474,0,0,1-.727.981,13.531,13.531,0,0,1-4.429,6.6,9.379,9.379,0,0,0,.572,3.292,21.422,21.422,0,0,1,3.424,1.041,1.04,1.04,0,0,1,.569,1.352,1.043,1.043,0,0,1-1.352.569,19.348,19.348,0,0,0-2.978-.916l-4.479,3.11-4.475-3.11c-6.274,1.432-8.842,4.5-8.842,10.491v2.693a1.322,1.322,0,0,0,1.322,1.322h3.289v-6.994a1.034,1.034,0,0,1,1.035-1.034,1.035,1.035,0,0,1,1.038,1.034v6.994h9.83a1.035,1.035,0,0,1,1.038,1.038,1.035,1.035,0,0,1-1.038,1.035Zm4.819-17.972,2.852,1.979,2.853-1.979a9.828,9.828,0,0,1-.618-2.829,6.369,6.369,0,0,1-2.234.409,6.3,6.3,0,0,1-2.234-.413A9.846,9.846,0,0,1,1295.537-13133.821Zm-2.588-16.4c-.129.671-.671,3.48-1.084,5a1.567,1.567,0,0,1-.136.334c1.081,3.289,3.679,6.578,6.66,6.578,3,0,5.6-3.306,6.674-6.607a1.532,1.532,0,0,1-.152-.37l-1.263-5.854a.4.4,0,0,0-.043.017l-5.067,2.678a1.033,1.033,0,0,1-1.167-.139,1.027,1.027,0,0,1-.288-1.138l.651-1.745A13.638,13.638,0,0,1,1292.948-13150.219Zm-1.451-6.359c-1.233,1.53-1.563,4.178-1,8.052.215-1.028.387-1.934.43-2.162a1.794,1.794,0,0,1,1.818-1.6,13.279,13.279,0,0,0,5.269-1.626.933.933,0,0,1,.3-.112,1.6,1.6,0,0,1,1.477.442,1.514,1.514,0,0,1,.407,1.389.773.773,0,0,1-.043.142l-.185.506,2.664-1.411a2.25,2.25,0,0,1,2.7.479,1.078,1.078,0,0,1,.238.466l.714,3.325c.542-3.8.208-6.4-1-7.906-1.183-1.472-3.309-2.143-6.878-2.169C1294.826-13158.737,1292.687-13158.062,1291.5-13156.578Z" data-name="Объединение 10" transform="translate(-724.001 13610.974)"/><g id="Сгруппировать_4082" data-name="Сгруппировать 4082" transform="translate(601.398 441.58)"><path id="Контур_13889" fill="url(#linear-gradient)" stroke="rgba(0,0,0,0)" stroke-width="1" d="M599.941,441.544" data-name="Контур 13889" transform="translate(-599.941 -441.544)"/></g></g></svg>