<svg xmlns="http://www.w3.org/2000/svg" xmlns:xlink="http://www.w3.org/1999/xlink" width="73.206" height="18.661" viewBox="0 0 73.206 18.661">
  <defs>
    <linearGradient id="linear-gradient" x1="0.755" y1="0.608" x2="-0.061" y2="0.093" gradientUnits="objectBoundingBox">
      <stop offset="0" stop-color="#a58f36"/>
      <stop offset="0.165" stop-color="#b19b40"/>
      <stop offset="0.329" stop-color="#a58f36"/>
      <stop offset="0.561" stop-color="#f9e9a4"/>
      <stop offset="0.788" stop-color="#bea74a"/>
      <stop offset="1" stop-color="#bea74a"/>
    </linearGradient>
    <linearGradient id="linear-gradient-2" x1="1.198" y1="0.826" x2="-0.156" y2="0.235" xlink:href="#linear-gradient"/>
    <linearGradient id="linear-gradient-3" x1="958.847" y1="738.263" x2="-128.93" y2="-98.84" xlink:href="#linear-gradient"/>
    <linearGradient id="linear-gradient-4" x1="248.635" y1="165.435" x2="-32.979" y2="-21.821" xlink:href="#linear-gradient"/>
    <linearGradient id="linear-gradient-5" x1="1.098" y1="0.829" x2="0.048" y2="0.259" xlink:href="#linear-gradient"/>
    <linearGradient id="linear-gradient-6" x1="1.119" y1="0.759" x2="-0.139" y2="0.101" xlink:href="#linear-gradient"/>
    <linearGradient id="linear-gradient-7" x1="1.178" y1="0.92" x2="-0.018" y2="0.184" xlink:href="#linear-gradient"/>
  </defs>
  <g id="humo" transform="translate(0 0)">
    <g id="Слой_x0020_1" transform="translate(0 0)">
      <path id="Контур_13715" data-name="Контур 13715" d="M2994.365,687.029c-.058.071-.182.192-.145.3h0c.037.1.261.079.355.127h0a.424.424,0,0,1,.222.416h0c-.006.2-.008,2.126-.016,4.779h0l-7-.041h0a14.188,14.188,0,0,1-.02-1.939h0a14.212,14.212,0,0,1,.25-1.943h0q.083-.421.192-.836h0a3.466,3.466,0,0,0,.275-1h0a.211.211,0,0,0-.039-.12h0c-.063-.078-.184-.065-.28-.04h0a3.953,3.953,0,0,0-1.628.88h0a4.252,4.252,0,0,0-.854,1.09h0a9.968,9.968,0,0,0-.969,3.89h0a15.214,15.214,0,0,0,1.467,7.563h0s1.1,2.174,2.674,2.71h0c.311.106.4.036.422,0h0c.123-.157-.14-.428-.218-.548h0a4.873,4.873,0,0,1-.372-.7h0a7.728,7.728,0,0,1-.471-1.564h0a21.884,21.884,0,0,1-.5-4.931h7.072v6.24a1.079,1.079,0,0,0,.55,1.005h0a2.235,2.235,0,0,0,.746.19h0a4.342,4.342,0,0,0,1.349,0h0a1.429,1.429,0,0,0,.712-.323h0a1.339,1.339,0,0,0,.316-1.076h0c0-3.134.029-6.269.025-9.4h0q0-1.166-.016-2.332h0a3.1,3.1,0,0,0-1.272-2.711h0a2.479,2.479,0,0,0-1.315-.4h0a1.906,1.906,0,0,0-1.512.708Z" transform="translate(-2980.833 -685.889)" fill-rule="evenodd" fill="url(#linear-gradient)"/>
      <path id="Контур_13716" data-name="Контур 13716" d="M2098.68,1546.708a5.64,5.64,0,0,0-1.048,3.7h0a11.375,11.375,0,0,0,1.246,5.642h0a9.785,9.785,0,0,0,1.338,1.921h0a9.262,9.262,0,0,0,1.761,1.513h0a5.332,5.332,0,0,1-1.524-.638h0a5.318,5.318,0,0,1-1.186-.995h0a10.066,10.066,0,0,1-.8-1.18h0a10.376,10.376,0,0,1-1.307-3.08h0c-.081-.369-.135-.744-.281-.759h0c-.209-.021-.446.725-.5.886h0a4.265,4.265,0,0,0-.2,1.256h0a6.063,6.063,0,0,0,2.531,4.228h0a8,8,0,0,0,4.21,1.232h0a2.255,2.255,0,0,0,1.229-.353h0c.235-.168.39-.426-.027-.547h0c-2.854-.835-3.967-3.858-4.577-6.48h0c-.133-.571-.259-1.134-.335-1.718h0a12.335,12.335,0,0,1,.354-5.4h0c-.435.1-.632.473-.887.777Z" transform="translate(-2096.182 -1541.771)" fill-rule="evenodd" fill="url(#linear-gradient-2)"/>
      <path id="Контур_13717" data-name="Контур 13717" d="M2876.71,1543.58l.01,0-.006-.007Z" transform="translate(-2873.324 -1539.42)" fill-rule="evenodd" fill="url(#linear-gradient-3)"/>
      <path id="Контур_13718" data-name="Контур 13718" d="M2877.479,1534.679l.007.007.033-.046-.04.039Z" transform="translate(-2874.09 -1530.529)" fill-rule="evenodd" fill="url(#linear-gradient-4)"/>
      <path id="Контур_13719" data-name="Контур 13719" d="M10823.427,694.843c-.128,0-.258.009-.385.009h0l-.536.006h-.365c-.226,0-.449,0-.673.007h0a1.16,1.16,0,0,0-.822.351h0a4.752,4.752,0,0,0-.82,1.512h0c-.059.139-.1.257-.137.338h0c-.131.286-2,4.329-2.7,5.5h0c-.051.087-.165.274-.309.268h0c-.144.006-.258-.181-.31-.268h0c-.7-1.171-2.57-5.214-2.7-5.5h0c-.033-.081-.079-.2-.138-.338h0a4.779,4.779,0,0,0-.818-1.512h0a1.166,1.166,0,0,0-.823-.351h0c-.223-.008-.448-.007-.673-.007h-.366l-.535-.006h0c-.129,0-.256-.008-.386-.009h0a.952.952,0,0,0-.517.158h0a1.244,1.244,0,0,0-.462.568h0a1.614,1.614,0,0,0-.114.426h0a6.653,6.653,0,0,0-.13,1.55h0q-.2,6.242-.408,12.482a1.057,1.057,0,0,0,.055.272h0a1.7,1.7,0,0,0,1.582.917h0a1.729,1.729,0,0,0,1.575-.829h0a1.313,1.313,0,0,0,.075-.233h0c.176-.848.278-7.672.316-10.645h0c1.628,3.338,2.9,5.832,3.491,6.932h0a1.618,1.618,0,0,0,.847.836h0a1.426,1.426,0,0,0,.439.072h0a1.426,1.426,0,0,0,.439-.072h0a1.619,1.619,0,0,0,.846-.836h0c.589-1.1,1.863-3.595,3.492-6.932h0c.037,2.974.14,9.8.317,10.645h0a1.4,1.4,0,0,0,.073.233h0a1.729,1.729,0,0,0,1.575.829h0a1.7,1.7,0,0,0,1.582-.917h0a1.024,1.024,0,0,0,.056-.272h0q-.2-6.242-.408-12.482h0a6.865,6.865,0,0,0-.129-1.55h0a1.714,1.714,0,0,0-.115-.426h0a1.258,1.258,0,0,0-.462-.568h0a.958.958,0,0,0-.511-.158h-.007Z" transform="translate(-10770.505 -694.375)" fill-rule="evenodd" fill="url(#linear-gradient-5)"/>
      <path id="Контур_13720" data-name="Контур 13720" d="M7888.62,3588.35a.652.652,0,0,1,.106.021s0,0,0,.008C7888.7,3588.425,7888.6,3588.4,7888.62,3588.35Z" transform="translate(-7863.49 -3575.329)" fill="#fefefe"/>
      <path id="Контур_13721" data-name="Контур 13721" d="M6914.875,702.659a1.328,1.328,0,0,0-.316.75h0q-.014,4.605-.029,9.211h0a3.253,3.253,0,0,1-.328,1.49h0a3.281,3.281,0,0,1-.892,1.122h0a3.68,3.68,0,0,1-1.784.693h0c-.1.008-.208.012-.208.012h0l-.08,0h0l-.079,0h0s-.106,0-.208-.012h0a3.68,3.68,0,0,1-1.785-.693h0a3.288,3.288,0,0,1-.891-1.122h0a3.275,3.275,0,0,1-.328-1.49h0q-.014-4.606-.028-9.211h0a1.334,1.334,0,0,0-.317-.75h0a1.992,1.992,0,0,0-1.618-.434h0a1.812,1.812,0,0,0-1.473.459h0a1.272,1.272,0,0,0-.224.931h0v9.641a5.321,5.321,0,0,0,1.117,3.214h0a6.362,6.362,0,0,0,2.762,1.989h0a8.11,8.11,0,0,0,1.96.434h0a8.5,8.5,0,0,0,1.111.038h0a8.519,8.519,0,0,0,1.112-.038h0a8.1,8.1,0,0,0,1.959-.434h0a6.364,6.364,0,0,0,2.762-1.989h0a5.319,5.319,0,0,0,1.118-3.214h0v-9.641a1.264,1.264,0,0,0-.223-.931h0a1.813,1.813,0,0,0-1.473-.459h0c-.095,0-.195-.005-.3-.005h0a1.689,1.689,0,0,0-1.322.439Z" transform="translate(-6883.419 -701.72)" fill-rule="evenodd" fill="url(#linear-gradient-6)"/>
      <path id="Контур_13722" data-name="Контур 13722" d="M8070.92,4505.69a.318.318,0,0,1,.084.024s-.049.03-.049.03Z" transform="translate(-8045.001 -4488.69)" fill="#fefefe"/>
      <path id="Контур_13723" data-name="Контур 13723" d="M15184.7,588.62a7.589,7.589,0,0,0-2.711,3.884h0c-1.329,4.444.671,10.114,5.459,11.367h0a8.437,8.437,0,0,0,2.36.266h0a8.441,8.441,0,0,0,2.36-.266h0c4.787-1.253,6.788-6.923,5.458-11.367h0a7.589,7.589,0,0,0-2.711-3.884h0a8.877,8.877,0,0,0-5.107-1.72h0A8.882,8.882,0,0,0,15184.7,588.62Zm.846,8.846a8.318,8.318,0,0,1,.741-6.224h0a4.219,4.219,0,0,1,3.521-2.006h0a4.221,4.221,0,0,1,3.521,2.006h0a8.332,8.332,0,0,1,.742,6.224h0c-.5,2.1-1.9,4.366-4.264,4.391h0c-2.365-.025-3.762-2.286-4.263-4.391Z" transform="translate(-15124.824 -586.9)" fill-rule="evenodd" fill="url(#linear-gradient-7)"/>
    </g>
  </g>
</svg>
