<svg xmlns="http://www.w3.org/2000/svg" xmlns:xlink="http://www.w3.org/1999/xlink" width="60.09" height="65.097" viewBox="0 0 60.09 65.097"><defs><linearGradient id="linear-gradient" x1="3.474" x2="-2.098" y1="-4.6" y2="-2.639" gradientUnits="objectBoundingBox"><stop offset="0" stop-color="#4f6a7b"/><stop offset="1" stop-color="#53c6e2"/></linearGradient></defs><g id="wallet3" transform="translate(0.5 0.5)"><g id="Сгруппировать_3221" data-name="Сгруппировать 3221" transform="translate(0 14.772)"><g id="Сгруппировать_3220" data-name="Сгруппировать 3220"><path id="Контур_13851" fill="url(#linear-gradient)" stroke="rgba(0,0,0,0)" stroke-width="1" d="M73.832,118H66.508a1.252,1.252,0,0,0,0,2.5h7.324a2.757,2.757,0,0,1,2.754,2.754v14.287a2.971,2.971,0,0,1-2.967,2.967H72.329V131.27a5.264,5.264,0,0,0-5.258-5.258H48.606v-3.818a1.252,1.252,0,0,0-2.5,0v3.818H25.258a2.754,2.754,0,1,1,0-5.508h8.284a1.252,1.252,0,1,0,0-2.5H25.258A5.264,5.264,0,0,0,20,123.258c0,.069,0,.138.005.207,0,.035-.005.069-.005.1v38.5a5.264,5.264,0,0,0,5.258,5.258H73.832a5.264,5.264,0,0,0,5.258-5.258V123.258A5.264,5.264,0,0,0,73.832,118Zm-4.006,44.067a2.757,2.757,0,0,1-2.7,2.753h-.058l-.029,0H25.258a2.757,2.757,0,0,1-2.754-2.754V127.735a5.226,5.226,0,0,0,2.754.781H67.072a2.757,2.757,0,0,1,2.754,2.754v9.242H58.559a7.762,7.762,0,1,0,0,15.523H69.826Zm6.76,0a2.757,2.757,0,0,1-2.754,2.754H71.549a5.226,5.226,0,0,0,.78-2.753v-6.031h.751a5.975,5.975,0,0,0,3.505-1.133Zm0-12.039a3.509,3.509,0,0,1-3.505,3.505H58.559a5.258,5.258,0,1,1,0-10.516h15.06a5.437,5.437,0,0,0,2.967-.878Z" data-name="Контур 13851" transform="translate(-20 -118)"/></g></g><g id="Сгруппировать_3223" data-name="Сгруппировать 3223" transform="translate(30.298 8.158)"><g id="Сгруппировать_3222" data-name="Сгруппировать 3222"><path id="Контур_13852" fill="url(#linear-gradient)" stroke="rgba(0,0,0,0)" stroke-width="1" d="M267.9,65.168a5.882,5.882,0,1,0,5.882,5.882A5.889,5.889,0,0,0,267.9,65.168Zm0,9.26a3.378,3.378,0,1,1,3.378-3.378A3.382,3.382,0,0,1,267.9,74.428Z" data-name="Контур 13852" transform="translate(-262.015 -65.168)"/></g></g><g id="Сгруппировать_3225" data-name="Сгруппировать 3225" transform="translate(18.154)"><g id="Сгруппировать_3224" data-name="Сгруппировать 3224"><path id="Контур_13853" fill="url(#linear-gradient)" stroke="rgba(0,0,0,0)" stroke-width="1" d="M170.9,0a5.882,5.882,0,1,0,5.882,5.882A5.889,5.889,0,0,0,170.9,0Zm0,9.26a3.378,3.378,0,1,1,3.378-3.378A3.382,3.382,0,0,1,170.9,9.26Z" data-name="Контур 13853" transform="translate(-165.015)"/></g></g><g id="Сгруппировать_3227" data-name="Сгруппировать 3227" transform="translate(40.227 0.123)"><g id="Сгруппировать_3226" data-name="Сгруппировать 3226"><path id="Контур_13854" fill="url(#linear-gradient)" stroke="rgba(0,0,0,0)" stroke-width="1" d="M346.5,2.947h-.71v-.71a1.252,1.252,0,0,0-2.5,0v.71h-.71a1.252,1.252,0,0,0,0,2.5h.71v.71a1.252,1.252,0,0,0,2.5,0v-.71h.71a1.252,1.252,0,0,0,0-2.5Z" data-name="Контур 13854" transform="translate(-341.326 -0.985)"/></g></g><g id="Сгруппировать_3229" data-name="Сгруппировать 3229" transform="translate(18.737 12.237)"><g id="Сгруппировать_3228" data-name="Сгруппировать 3228"><path id="Контур_13855" fill="url(#linear-gradient)" stroke="rgba(0,0,0,0)" stroke-width="1" d="M170.919,97.75A1.252,1.252,0,0,0,169.667,99v5.07a1.252,1.252,0,0,0,2.5,0V99A1.252,1.252,0,0,0,170.919,97.75Z" data-name="Контур 13855" transform="translate(-169.667 -97.75)"/></g></g><g id="Сгруппировать_3231" data-name="Сгруппировать 3231" transform="translate(38.068 43.95)"><g id="Сгруппировать_3230" data-name="Сгруппировать 3230"><path id="Контур_13856" fill="url(#linear-gradient)" stroke="rgba(0,0,0,0)" stroke-width="1" d="M326.217,351.437a1.251,1.251,0,1,0,.367.885A1.264,1.264,0,0,0,326.217,351.437Z" data-name="Контур 13856" transform="translate(-324.08 -351.07)"/></g></g><g id="Сгруппировать_3233" data-name="Сгруппировать 3233" transform="translate(7.052 32.549)"><g id="Сгруппировать_3232" data-name="Сгруппировать 3232"><path id="Контур_13857" fill="url(#linear-gradient)" stroke="rgba(0,0,0,0)" stroke-width="1" d="M77.586,260a1.252,1.252,0,0,0-1.252,1.252v10.307a1.252,1.252,0,0,0,2.5,0V261.252A1.252,1.252,0,0,0,77.586,260Z" data-name="Контур 13857" transform="translate(-76.334 -260)"/></g></g><g id="Сгруппировать_3235" data-name="Сгруппировать 3235" transform="translate(7.052 47.176)"><g id="Сгруппировать_3234" data-name="Сгруппировать 3234"><path id="Контур_13858" fill="url(#linear-gradient)" stroke="rgba(0,0,0,0)" stroke-width="1" d="M78.467,377.207a1.251,1.251,0,1,0,.367.885A1.26,1.26,0,0,0,78.467,377.207Z" data-name="Контур 13858" transform="translate(-76.33 -376.84)"/></g></g></g></svg>