<svg id="wallet2" xmlns="http://www.w3.org/2000/svg" xmlns:xlink="http://www.w3.org/1999/xlink" width="64.097" height="64.097" viewBox="0 0 64.097 64.097">
  <defs>
    <linearGradient id="linear-gradient" x1="3.474" y1="-4.6" x2="-2.098" y2="-2.639" gradientUnits="objectBoundingBox">
      <stop offset="0" stop-color="#4f6a7b"/>
      <stop offset="1" stop-color="#53c6e2"/>
    </linearGradient>
  </defs>
  <g id="Сгруппировать_3210" data-name="Сгруппировать 3210" transform="translate(42.407 50.076)">
    <g id="Сгруппировать_3209" data-name="Сгруппировать 3209">
      <path id="Контур_13846" data-name="Контур 13846" d="M340.877,400.367a1.251,1.251,0,1,0,.367.885A1.262,1.262,0,0,0,340.877,400.367Z" transform="translate(-338.74 -400)" fill="url(#linear-gradient)"/>
    </g>
  </g>
  <g id="Сгруппировать_3212" data-name="Сгруппировать 3212" transform="translate(12.143)">
    <g id="Сгруппировать_3211" data-name="Сгруппировать 3211">
      <path id="Контур_13847" data-name="Контур 13847" d="M148.7,25.54a1.252,1.252,0,0,0-1-.5H142.6V1.252A1.252,1.252,0,0,0,141.344,0H118.309a1.252,1.252,0,0,0-1.252,1.252v9.64h-12.91a1.252,1.252,0,0,0-1.252,1.252V25.038H98.251a1.252,1.252,0,0,0-1.2,1.606l7.385,25.038a1.252,1.252,0,0,0,1.2.9h17.341a1.252,1.252,0,1,0,0-2.5h-16.4L99.926,27.542h46.1l-6.646,22.534h-4.574a1.252,1.252,0,1,0,0,2.5h5.51a1.252,1.252,0,0,0,1.2-.9L148.9,26.644A1.252,1.252,0,0,0,148.7,25.54Zm-23.277-.5H105.4V13.4h20.029V25.038Zm14.664,0h-12.16V12.143a1.252,1.252,0,0,0-1.252-1.252h-7.119V2.5h20.531Z" transform="translate(-96.999)" fill="url(#linear-gradient)"/>
    </g>
  </g>
  <g id="Сгруппировать_3214" data-name="Сгруппировать 3214" transform="translate(0 18.759)">
    <g id="Сгруппировать_3213" data-name="Сгруппировать 3213">
      <path id="Контур_13848" data-name="Контур 13848" d="M56.849,185.92H18.222L7.847,150.744a1.252,1.252,0,0,0-1.2-.9H1.252a1.252,1.252,0,1,0,0,2.5H5.71l10.375,35.176a1.252,1.252,0,0,0,1.2.9H23.5a4.632,4.632,0,1,0,8.224,0H41.969a4.632,4.632,0,1,0,8.224,0h6.656a1.252,1.252,0,1,0,0-2.5Zm-29.24,6.76a2.128,2.128,0,1,1,2.128-2.128A2.131,2.131,0,0,1,27.609,192.68Zm18.472,0a2.128,2.128,0,1,1,2.128-2.128A2.131,2.131,0,0,1,46.081,192.68Z" transform="translate(0 -149.846)" fill="url(#linear-gradient)"/>
    </g>
  </g>
  <g id="Сгруппировать_3216" data-name="Сгруппировать 3216" transform="translate(29.306 31.172)">
    <g id="Сгруппировать_3215" data-name="Сгруппировать 3215">
      <path id="Контур_13849" data-name="Контур 13849" d="M236.227,249.367a1.254,1.254,0,1,0,.366.885A1.262,1.262,0,0,0,236.227,249.367Z" transform="translate(-234.09 -249)" fill="url(#linear-gradient)"/>
    </g>
  </g>
  <g id="Сгруппировать_3218" data-name="Сгруппировать 3218" transform="translate(14.95 31.172)">
    <g id="Сгруппировать_3217" data-name="Сгруппировать 3217">
      <path id="Контур_13850" data-name="Контур 13850" d="M129.756,249h-9.09a1.252,1.252,0,1,0,0,2.5h9.09a1.252,1.252,0,0,0,0-2.5Z" transform="translate(-119.415 -249)" fill="url(#linear-gradient)"/>
    </g>
  </g>
</svg>
