<svg xmlns="http://www.w3.org/2000/svg" xmlns:xlink="http://www.w3.org/1999/xlink" width="65.097" height="57.986" viewBox="0 0 65.097 57.986">
  <defs>
    <linearGradient id="linear-gradient" x1="3.474" y1="-4.6" x2="-2.098" y2="-2.639" gradientUnits="objectBoundingBox">
      <stop offset="0" stop-color="#4f6a7b"/>
      <stop offset="1" stop-color="#53c6e2"/>
    </linearGradient>
  </defs>
  <g id="wallet1" transform="translate(0.5 0.54)">
    <g id="Сгруппировать_3207" data-name="Сгруппировать 3207" transform="translate(0 0)">
      <path id="Контур_13843" data-name="Контур 13843" d="M39.833,215.205l-19-14.828a2.914,2.914,0,0,0-4.7,2.31v6.632H1.252A1.252,1.252,0,0,0,0,210.571v13.888a1.252,1.252,0,0,0,1.252,1.252H16.129v6.632a2.91,2.91,0,0,0,4.7,2.31l19-14.828a2.933,2.933,0,0,0,0-4.62Zm-37.329,8V211.823H17.381a1.252,1.252,0,0,0,1.252-1.252v-7.884a.405.405,0,0,1,.235-.381.383.383,0,0,1,.426.045l14.06,10.973-14.72,11.348v-.213a1.252,1.252,0,0,0-1.252-1.252H2.5Zm35.789-5.356-19,14.828a.383.383,0,0,1-.426.045.4.4,0,0,1-.235-.381v-4.509l16.758-12.92,2.9,2.264a.429.429,0,0,1,0,.672Z" transform="translate(0 -178.326)" stroke="rgba(0,0,0,0)" stroke-width="1" fill="url(#linear-gradient)"/>
      <path id="Контур_13844" data-name="Контур 13844" d="M239.459,38.121H226.718V31.489a2.914,2.914,0,0,0-4.7-2.31l-19,14.828a2.932,2.932,0,0,0,0,4.62l19,14.828a2.914,2.914,0,0,0,4.7-2.31V54.513h12.741a1.252,1.252,0,0,0,1.252-1.252V39.373a1.252,1.252,0,0,0-1.252-1.252Zm-1.252,13.888H225.466a1.252,1.252,0,0,0-1.252,1.252v7.884a.405.405,0,0,1-.235.381.382.382,0,0,1-.426-.045L209.223,50.3l3.862-2.874a1.252,1.252,0,0,0-1.5-2.009L207.175,48.7l-2.621-2.046a.429.429,0,0,1,0-.672l19-14.828a.382.382,0,0,1,.426-.045.4.4,0,0,1,.235.381v4.528l-3.544,2.638a1.252,1.252,0,1,0,1.5,2.009l2.049-1.525v.234a1.252,1.252,0,0,0,1.252,1.252h12.741Z" transform="translate(-176.614 -28.56)" stroke="rgba(0,0,0,0)" stroke-width="1" fill="url(#linear-gradient)"/>
      <path id="Контур_13845" data-name="Контур 13845" d="M314.188,134.884a1.252,1.252,0,1,0-.513,1.552,1.26,1.26,0,0,0,.513-1.552Z" transform="translate(-272.75 -120.898)" stroke="rgba(0,0,0,0)" stroke-width="1" fill="url(#linear-gradient)"/>
    </g>
  </g>
</svg>
