<svg xmlns="http://www.w3.org/2000/svg" id="Group_456" width="32" height="31.999" data-name="Group 456" viewBox="0 0 32 31.999"><path id="Path_405" fill="#00b1e3" fill-rule="evenodd" d="M160.5,103.5a16,16,0,1,0-16-16A16,16,0,0,0,160.5,103.5Zm0-29a13,13,0,1,1-13,13A13.016,13.016,0,0,1,160.5,74.5Zm1.486,19.606,0,0a1.5,1.5,0,1,0,2.022-2.2l0,0L159.22,87.5l4.794-4.394,0,0a1.5,1.5,0,1,0-2.022-2.2l0,0-6,5.5a1.5,1.5,0,0,0,0,2.211Z" data-name="Path 405" opacity=".73" transform="translate(-144.5 -71.5)"/></svg>