<svg xmlns="http://www.w3.org/2000/svg" width="204.562" height="57.478" viewBox="0 0 204.562 57.478">
  <g id="Click" transform="translate(0.01 0.256)">
    <g id="_2180368684240" transform="translate(-0.01 -0.256)">
      <path id="Exclusion_1" data-name="Exclusion 1" d="M28.751,57.478a14.341,14.341,0,0,1-4.123-.629A22.832,22.832,0,0,1,20.4,55.07a37.173,37.173,0,0,1-5.257-3.284,41.483,41.483,0,0,1-4.221-3.8C9.136,46.2,7.47,44.373,6.1,42.695a31.057,31.057,0,0,1-3.9-5.818l-.091-.19,0-.006-.021-.044,0-.01,0-.01-.106-.227-.007-.015-.007-.015-.1-.219-.013-.028,0-.008-.074-.164-.023-.051-.017-.039-.014-.031,0-.006-.077-.175-.008-.02L1.621,35.6l-.091-.212-.015-.035-.089-.215-.006-.014-.006-.014L1.33,34.9l-.01-.025-.081-.207,0-.007-.011-.028-.077-.2-.007-.02v0l-.009-.023c-.024-.064-.047-.128-.071-.194l0-.013-.014-.039c-.027-.074-.048-.135-.067-.189l0-.012-.015-.045L.89,33.7l-.019-.058L.81,33.458.8,33.429.792,33.4c-.022-.068-.04-.127-.057-.181l-.017-.057L.669,33,.66,32.969l0-.006-.01-.035L.6,32.768l-.008-.027v0L.584,32.7c-.017-.063-.032-.118-.046-.17L.528,32.5l-.009-.033c-.013-.051-.028-.106-.043-.168l-.015-.06,0-.014c-.011-.045-.026-.1-.04-.164L.4,31.982c-.012-.049-.024-.1-.037-.162l-.008-.038-.009-.04c-.012-.054-.023-.108-.034-.161L.3,31.507v0c-.008-.038-.015-.076-.023-.114l0-.02,0-.017v-.006l-.015-.08V31.26l-.021-.117c-.007-.037-.013-.074-.019-.111l-.02-.122c-.006-.035-.011-.07-.017-.1s-.013-.087-.02-.131l-.006-.043-.006-.043c-.007-.051-.014-.1-.02-.151L.11,30.364V30.35C.1,30.292.1,30.244.09,30.2c0-.027-.006-.054-.009-.081v-.01c-.005-.048-.01-.1-.015-.148,0-.028-.005-.057-.008-.085v-.006q-.006-.062-.011-.124v0c0-.037-.006-.073-.008-.11s-.005-.073-.008-.109v0c0-.041-.005-.082-.007-.124s0-.069-.006-.1,0-.083-.005-.124v-.006c0-.035,0-.07,0-.105s0-.055,0-.082v-.04c0-.038,0-.077,0-.115s0-.062,0-.093v-.233q0-.072,0-.144v0c0-.034,0-.068,0-.1s0-.085,0-.128c0-.024,0-.047,0-.071v-.035c0-.054,0-.1.007-.146,0-.027,0-.055,0-.082,0-.044.005-.091.009-.147,0-.026,0-.053.006-.079,0-.05.008-.1.012-.15l0-.049,0-.035q.007-.075.015-.15l.008-.079,0-.016c0-.045.01-.094.018-.152,0-.018,0-.036.007-.054v0l0-.026v-.01c.006-.05.013-.1.02-.15l.01-.071c.008-.054.016-.108.024-.161l.01-.06v-.009c.008-.05.017-.105.028-.168l.012-.07c.01-.058.021-.117.032-.176l.009-.046,0-.025v0c.011-.058.023-.118.035-.176l.01-.05,0-.009c.012-.058.025-.118.038-.177l0-.019v0l.008-.037c.012-.055.026-.113.042-.181l.013-.053c.014-.057.029-.119.048-.195l.007-.027.006-.022c.017-.067.035-.135.055-.209l.005-.019v0l.006-.021c.02-.073.038-.138.055-.2l.013-.046c.017-.059.038-.129.059-.2l0-.008.011-.036c.022-.072.044-.142.064-.206l.011-.035c.022-.069.046-.143.074-.227l.006-.019,0-.007c.025-.076.052-.153.076-.224l.012-.033c.025-.073.052-.147.077-.216l.006-.016v0l.006-.016c.031-.084.057-.153.081-.219l.01-.027v0c.029-.075.059-.153.09-.232l.006-.015c.03-.077.063-.158.1-.248l.007-.017c.034-.083.066-.161.1-.237l.011-.026c.029-.069.061-.143.1-.232l.012-.027c.03-.068.063-.144.106-.238l.009-.02c.045-.1.083-.182.118-.257,2.084-4.48,5.2-7.6,8.219-10.616l.06-.06c1.756-1.756,3.395-3.255,5.01-4.582a44.548,44.548,0,0,1,5.885-4.133A15.473,15.473,0,0,1,24.58.462,12.782,12.782,0,0,1,27.968,0a14.281,14.281,0,0,1,4.524.77,24.961,24.961,0,0,1,4.031,1.789,47.882,47.882,0,0,1,5.906,3.752,45.623,45.623,0,0,1,4.988,4.309,42.262,42.262,0,0,1,4.447,5.305,24.886,24.886,0,0,1,3.064,5.463,38.59,38.59,0,0,1,1.306,4.153,17.147,17.147,0,0,1,.522,3.74,13.166,13.166,0,0,1-.445,3.666,18.2,18.2,0,0,1-1.595,3.929,33.774,33.774,0,0,1-3.4,5.171A53.1,53.1,0,0,1,47.2,46.572a61.657,61.657,0,0,1-4.97,4.458,56.6,56.6,0,0,1-5.706,4.04A14.592,14.592,0,0,1,28.751,57.478Zm4.255-6.37a13.827,13.827,0,0,1-3.7,1.508A13.822,13.822,0,0,0,33.006,51.108ZM16.03,48.814h0c.121.082.246.165.371.246C16.263,48.97,16.142,48.889,16.03,48.814Zm-4.222-3.523h0l.213.207Zm2.037-20.135-.066.143,0,.011-.059.132-.006.015-.056.129,0,.007,0,.007-.055.132,0,.009-.055.137v0l0,.006-.05.129,0,.009,0,.008-.045.121v0l-.006.015-.043.12,0,.01,0,.008c-.014.038-.027.079-.042.124l0,0,0,.01c-.017.051-.03.089-.041.126l-.006.019-.035.115-.007.024q-.017.055-.033.11l0,.013,0,.013-.031.11L13.158,27l-.006.024v0l-.024.09-.007.027c-.009.036-.018.072-.027.108l-.007.029-.023.1-.006.028h0v0l-.008.038-.013.061,0,.016,0,.017-.017.083,0,.016L13,27.689l-.012.064-.006.034,0,.015v0l0,.021c-.005.031-.01.061-.015.092v0l-.006.038-.013.09-.006.038h0c0,.03-.008.059-.012.089l0,.023,0,.023c0,.028-.007.056-.01.084l0,.028,0,.025,0,.027c0,.019,0,.038-.005.056l0,.047,0,.025c0,.019,0,.039,0,.058s0,.029,0,.044,0,.052-.005.078v0c0,.01,0,.02,0,.031v.018c0,.026,0,.052,0,.079s0,.038,0,.057v0c0,.022,0,.045,0,.067v.063h0v0c0,.025,0,.05,0,.075v.181c0,.021,0,.043,0,.064s0,.045,0,.068l0,.058c0,.024,0,.048,0,.072l0,.029,0,.029c0,.016,0,.031,0,.047v.024l0,.031,0,.03c0,.02,0,.041,0,.061l0,.034,0,.037v0l0,.046c0,.027.005.054.008.081h0c0,.011,0,.021,0,.032l0,.018c0,.028.006.055.01.082l0,.021,0,.028.006.042v0l.005.038.007.048,0,.024v0l.007.046,0,.024v0l0,.029.006.034v0l0,.029,0,.029.006.033.013.068,0,.019.007.038,0,.019v0l.01.052v0l.008.038q.009.045.019.089l.009.043.014.061v0l.006.028,0,.021v0l0,.019v0l.021.088.01.041c.009.036.017.066.024.093l.01.038.025.091v0l.005.018.005.018c.008.03.017.059.025.089l.011.039.027.091.005.017,0,.015v0l.031.1,0,.015,0,.016.016.048v0l.017.051.007.02,0,.012.026.077v0l.008.023.011.031,0,.014v0l.031.088.01.029.04.108.006.015,0,.01.043.113.008.02.045.115.006.014.04.1.007.017,0,.007,0,.009c.016.039.033.079.05.119l.006.015,0,0,.05.118,0,0,.007.017.039.089,0,0,.011.025.01.022.053.119,0,.007.006.013.056.122,0,.01,0,.007.016.034.043.093,0,0,0,.006.021.043v0l.042.089a27.1,27.1,0,0,0,4.841,6.173,18.856,18.856,0,0,0,5.265,3.934,9.776,9.776,0,0,0,4.639,1.337,8.106,8.106,0,0,0,4.318-1.337,33.148,33.148,0,0,0,5.93-4.72,22,22,0,0,0,4.176-5.386c1.64-3.068,1.326-5.3.118-8.6A19.445,19.445,0,0,0,39.2,19.165a25.866,25.866,0,0,0-6.051-4.478A10.149,10.149,0,0,0,28.4,13.266a7.638,7.638,0,0,0-3.9,1.119,29.542,29.542,0,0,0-6.052,4.841l-.032.032a20.584,20.584,0,0,0-4.567,5.9Zm-2.682,19.5h0l.371.368Zm32.566-2.19c-.291.3-.6.614-.929.944-.385.385-.78.768-1.181,1.145.4-.377.8-.76,1.181-1.145C43.131,43.078,43.439,42.764,43.729,42.464Zm5.844-7.928c-.07.137-.142.276-.216.415a29.274,29.274,0,0,1-1.59,2.638,29.268,29.268,0,0,0,1.59-2.638C49.432,34.812,49.5,34.673,49.574,34.535Zm.662-11.071h0a20.4,20.4,0,0,1,.793,3.416A19.994,19.994,0,0,0,50.235,23.464ZM41.459,10.6q.789.708,1.531,1.451a36.851,36.851,0,0,1,3.88,4.628c.506.716.963,1.417,1.358,2.085a35.312,35.312,0,0,0-5.238-6.713Q42.25,11.306,41.459,10.6ZM32.342,4.428h0c.365.176.74.368,1.145.586,1.123.6,2.228,1.264,3.283,1.961-1.053-.7-2.158-1.356-3.282-1.961C33.082,4.8,32.708,4.6,32.342,4.428ZM14.517,31.982a10.717,10.717,0,0,1-.476-1.35,7.393,7.393,0,0,1-.273-1.752,8.645,8.645,0,0,0,.75,3.1Z" transform="translate(0 0)" fill="#53b7d1"/>
    </g>
    <path id="Path_1475" data-name="Path 1475" d="M10635.818,1515.053q1.941,0,3.575-.077t3.371-.332a.63.63,0,0,1,.766.715v3.83c0,.442-.271.749-.817.919a23.055,23.055,0,0,1-4.086.868,34.44,34.44,0,0,1-4.442.306,18.441,18.441,0,0,1-7-1.175,11.381,11.381,0,0,1-4.647-3.4,14.078,14.078,0,0,1-2.605-5.439,29.79,29.79,0,0,1-.816-7.3v-2.349a30.634,30.634,0,0,1,.792-7.3,13.987,13.987,0,0,1,2.554-5.439,11.184,11.184,0,0,1,4.622-3.4,18.433,18.433,0,0,1,7-1.175,27,27,0,0,1,8.171,1.328,1.266,1.266,0,0,1,.613.358.921.921,0,0,1,.153.562v3.677a.631.631,0,0,1-.767.715q-1.431-.2-3.115-.307t-3.422-.1a11.131,11.131,0,0,0-4.111.664,5.938,5.938,0,0,0-2.681,2.094,9.243,9.243,0,0,0-1.455,3.6,26.362,26.362,0,0,0-.435,5.133v1.583a25.118,25.118,0,0,0,.459,5.132,9.071,9.071,0,0,0,1.507,3.575,6.146,6.146,0,0,0,2.732,2.068,11.167,11.167,0,0,0,4.085.664Zm13.637-29.314c0-.545.254-.817.766-.817h6.332a.722.722,0,0,1,.817.817v26.4a3.8,3.8,0,0,0,.511,2.2,2.453,2.453,0,0,0,2.094.715h12.1a.722.722,0,0,1,.817.817v3.779q0,.97-.868,1.021-2.808.255-6.435.434t-7.508.179a17.258,17.258,0,0,1-4.061-.409,6.283,6.283,0,0,1-2.681-1.3,4.906,4.906,0,0,1-1.456-2.323,12.3,12.3,0,0,1-.433-3.524Zm36.105,34.063a.767.767,0,0,1-.868.868h-6.18a.767.767,0,0,1-.868-.868v-33.961q0-.919.868-.919h6.18q.869,0,.868.919Zm23.9-4.75q1.942,0,3.576-.077t3.37-.332a.631.631,0,0,1,.767.715v3.83q0,.664-.818.919a23.061,23.061,0,0,1-4.085.868,34.455,34.455,0,0,1-4.443.306,18.441,18.441,0,0,1-7-1.175,11.381,11.381,0,0,1-4.647-3.4,14.077,14.077,0,0,1-2.6-5.439,29.787,29.787,0,0,1-.817-7.3v-2.349a30.634,30.634,0,0,1,.792-7.3,14,14,0,0,1,2.554-5.439,11.184,11.184,0,0,1,4.622-3.4,18.437,18.437,0,0,1,7-1.175,27.016,27.016,0,0,1,8.172,1.328,1.267,1.267,0,0,1,.612.358.921.921,0,0,1,.153.562v3.677a.63.63,0,0,1-.766.715q-1.431-.2-3.116-.307t-3.421-.1a11.132,11.132,0,0,0-4.112.664,5.938,5.938,0,0,0-2.681,2.094,9.273,9.273,0,0,0-1.455,3.6,26.445,26.445,0,0,0-.434,5.133v1.583a25.124,25.124,0,0,0,.458,5.132,9.058,9.058,0,0,0,1.508,3.575,6.135,6.135,0,0,0,2.732,2.068,11.161,11.161,0,0,0,4.084.664Zm39.273-30.131a.571.571,0,0,1,.562.306.618.618,0,0,1-.1.664l-10.929,16.24,12.359,17.619a.562.562,0,0,1,.076.587.556.556,0,0,1-.587.332h-7.2a1.983,1.983,0,0,1-.868-.153,1.455,1.455,0,0,1-.561-.562l-10.47-15.934v15.78a.768.768,0,0,1-.868.868h-6.181a.767.767,0,0,1-.867-.868v-33.961q0-.919.867-.919h6.181q.867,0,.868.919v14.4l9.754-14.708a1.41,1.41,0,0,1,1.175-.613Z" transform="translate(-10546.195 -1473.565)" fill="#fff"/>
  </g>
</svg>
