<svg id="Group_457" data-name="Group 457" xmlns="http://www.w3.org/2000/svg" width="32" height="31.999" viewBox="0 0 32 31.999">
  <path id="Path_405" data-name="Path 405" d="M160.5,103.5a16,16,0,1,1,16-16A16,16,0,0,1,160.5,103.5Zm0-29a13,13,0,1,0,13,13A13.016,13.016,0,0,0,160.5,74.5Zm-1.486,19.606,0,0a1.5,1.5,0,1,1-2.022-2.2l0,0,4.794-4.4-4.794-4.394,0,0a1.5,1.5,0,1,1,2.022-2.2l0,0,6,5.5a1.5,1.5,0,0,1,0,2.211Z" transform="translate(-144.5 -71.5)" fill="#00b1e3" fill-rule="evenodd" opacity="0.73"/>
</svg>
