<svg xmlns="http://www.w3.org/2000/svg" xmlns:xlink="http://www.w3.org/1999/xlink" width="199" height="57.5" viewBox="0 0 199 57.5">
  <defs>
    <clipPath id="clip-path">
      <path id="Clip_5" data-name="Clip 5" d="M0,0H184.1V54.548H0Z" fill="none"/>
    </clipPath>
    <clipPath id="clip-path-2">
      <path id="Clip_31" data-name="Clip 31" d="M.631.1A2.731,2.731,0,0,0,0,2.016H0v30.16A2.722,2.722,0,0,0,.631,34.09h0l.1.1,16.9-16.9v-.4L.731,0Z" transform="translate(0)" fill="none"/>
    </clipPath>
    <clipPath id="clip-path-3">
      <path id="Clip_34" data-name="Clip 34" d="M0,5.633v.4l5.631,5.633.128-.071L12.432,7.8c1.905-1.084,1.905-2.857,0-3.94h0L5.759.072,5.632,0Z" fill="none"/>
    </clipPath>
    <clipPath id="clip-path-4">
      <path id="Clip_37" data-name="Clip 37" d="M0,16.995c.627.665,1.665.749,2.834.085h0L22.755,5.76,17,0Z" fill="none"/>
    </clipPath>
    <linearGradient id="linear-gradient" x1="0.862" y1="0.178" x2="-0.501" y2="1.948" gradientUnits="objectBoundingBox">
      <stop offset="0" stop-color="#ff3a44"/>
      <stop offset="1" stop-color="#c31162"/>
    </linearGradient>
    <clipPath id="clip-path-5">
      <path id="Clip_40" data-name="Clip 40" d="M0,.543l17,17,5.759-5.76L2.834.46A3.132,3.132,0,0,0,1.305,0h0A1.741,1.741,0,0,0,0,.543" fill="none"/>
    </clipPath>
  </defs>
  <g id="evo1" transform="translate(0 -2)">
    <rect id="Прямоугольник_1849" data-name="Прямоугольник 1849" width="196" height="57" rx="5" transform="translate(3 2.5)" fill="#1e1f2e"/>
    <g id="Group_24" data-name="Group 24" transform="translate(0 2)">
      <g id="Group_29" data-name="Group 29">
        <g id="Group_6" data-name="Group 6">
          <path id="Clip_5-2" data-name="Clip 5" d="M0,0H184.1V54.548H0Z" fill="none"/>
        </g>
        <path id="Fill_7" data-name="Fill 7" d="M8.272,4.605A3.694,3.694,0,0,1,7.256,7.337,3.968,3.968,0,0,1,4.251,8.548,4.114,4.114,0,0,1,1.24,7.319,4.11,4.11,0,0,1,0,4.274,4.113,4.113,0,0,1,1.24,1.227,4.118,4.118,0,0,1,4.251,0,4.229,4.229,0,0,1,5.929.342a3.383,3.383,0,0,1,1.281.914l-.72.72a2.764,2.764,0,0,0-2.239-.971A3.162,3.162,0,0,0,1.073,4.274,3.162,3.162,0,0,0,4.251,7.541a3.1,3.1,0,0,0,2.286-.914,2.565,2.565,0,0,0,.685-1.657H4.251V3.987H8.215a3.507,3.507,0,0,1,.057.618" transform="translate(56.393 9.363)" fill="#fff"/>
        <path id="Stroke_9" data-name="Stroke 9" d="M8.272,4.605A3.694,3.694,0,0,1,7.256,7.337,3.968,3.968,0,0,1,4.251,8.548,4.114,4.114,0,0,1,1.24,7.319,4.11,4.11,0,0,1,0,4.274,4.113,4.113,0,0,1,1.24,1.227,4.118,4.118,0,0,1,4.251,0,4.229,4.229,0,0,1,5.929.342a3.383,3.383,0,0,1,1.281.914l-.72.72a2.764,2.764,0,0,0-2.239-.971A3.162,3.162,0,0,0,1.073,4.274,3.162,3.162,0,0,0,4.251,7.541a3.1,3.1,0,0,0,2.286-.914,2.565,2.565,0,0,0,.685-1.657H4.251V3.987H8.215A3.507,3.507,0,0,1,8.272,4.605Z" transform="translate(56.393 9.363)" fill="none" stroke="#fff" stroke-miterlimit="10" stroke-width="0.2"/>
        <path id="Fill_11" data-name="Fill 11" d="M4.777,1.005H1.051V3.6H4.41v.983H1.051V7.176H4.777V8.182H0V0H4.777Z" transform="translate(66.174 9.546)" fill="#fff"/>
        <path id="Stroke_13" data-name="Stroke 13" d="M4.777,1.005H1.051V3.6H4.41v.983H1.051V7.176H4.777V8.182H0V0H4.777Z" transform="translate(66.174 9.546)" fill="none" stroke="#fff" stroke-miterlimit="10" stroke-width="0.2"/>
        <path id="Fill_15" data-name="Fill 15" d="M3.337,8.182H2.286V1.005H0V0H5.623V1.005H3.337Z" transform="translate(72.047 9.546)" fill="#fff"/>
        <path id="Stroke_17" data-name="Stroke 17" d="M3.337,8.182H2.286V1.005H0V0H5.623V1.005H3.337Z" transform="translate(72.047 9.546)" fill="none" stroke="#fff" stroke-miterlimit="10" stroke-width="0.2"/>
        <path id="Fill_19" data-name="Fill 19" d="M0,8.182H1.051V0H0Z" transform="translate(81.738 9.546)" fill="#fff"/>
        <path id="Stroke_21" data-name="Stroke 21" d="M0,8.182H1.051V0H0Z" transform="translate(81.738 9.546)" fill="none" stroke="#fff" stroke-miterlimit="10" stroke-width="0.2"/>
        <path id="Fill_22" data-name="Fill 22" d="M3.337,8.182H2.286V1.005H0V0H5.623V1.005H3.337Z" transform="translate(84.116 9.546)" fill="#fff"/>
        <path id="Stroke_23" data-name="Stroke 23" d="M3.337,8.182H2.286V1.005H0V0H5.623V1.005H3.337Z" transform="translate(84.116 9.546)" fill="none" stroke="#fff" stroke-miterlimit="10" stroke-width="0.2"/>
        <path id="Fill_24" data-name="Fill 24" d="M4.2,8.547a4.027,4.027,0,0,1-3-1.241A4.2,4.2,0,0,1,0,4.274,4.2,4.2,0,0,1,1.205,1.24,4.034,4.034,0,0,1,4.2,0,4.034,4.034,0,0,1,7.2,1.245,4.206,4.206,0,0,1,8.41,4.274,4.205,4.205,0,0,1,7.2,7.306,4.03,4.03,0,0,1,4.2,8.547Zm0-7.542a3.02,3.02,0,0,0-2.224.921,3.218,3.218,0,0,0-.908,2.348,3.224,3.224,0,0,0,.908,2.349A3.019,3.019,0,0,0,4.2,7.541a3.017,3.017,0,0,0,2.223-.918,3.22,3.22,0,0,0,.909-2.349,3.215,3.215,0,0,0-.909-2.348A3.018,3.018,0,0,0,4.2,1.005Z" transform="translate(93.177 9.363)" fill="#fff"/>
        <path id="Stroke_25" data-name="Stroke 25" d="M4.2,8.547a4.027,4.027,0,0,1-3-1.241A4.2,4.2,0,0,1,0,4.274,4.2,4.2,0,0,1,1.205,1.24,4.034,4.034,0,0,1,4.2,0,4.034,4.034,0,0,1,7.2,1.245,4.206,4.206,0,0,1,8.41,4.274,4.205,4.205,0,0,1,7.2,7.306,4.03,4.03,0,0,1,4.2,8.547Zm0-7.542a3.02,3.02,0,0,0-2.224.921,3.218,3.218,0,0,0-.908,2.348,3.224,3.224,0,0,0,.908,2.349A3.019,3.019,0,0,0,4.2,7.541a3.017,3.017,0,0,0,2.223-.918,3.22,3.22,0,0,0,.909-2.349,3.215,3.215,0,0,0-.909-2.348A3.018,3.018,0,0,0,4.2,1.005Z" transform="translate(93.177 9.363)" fill="none" stroke="#fff" stroke-miterlimit="10" stroke-width="0.2"/>
        <path id="Fill_26" data-name="Fill 26" d="M0,8.182V0H1.279L5.256,6.364H5.3L5.256,4.788V0H6.309V8.182h-1.1L1.051,1.508H1.005l.046,1.578v5.1Z" transform="translate(103.063 9.546)" fill="#fff"/>
        <path id="Stroke_27" data-name="Stroke 27" d="M0,8.182V0H1.279L5.256,6.364H5.3L5.256,4.788V0H6.309V8.182h-1.1L1.051,1.508H1.005l.046,1.578v5.1Z" transform="translate(103.063 9.546)" fill="none" stroke="#fff" stroke-miterlimit="10" stroke-width="0.2"/>
        <path id="Fill_28" data-name="Fill 28" d="M49.441,23.223A5.559,5.559,0,0,1,44.3,19.8l2.219-.923a3.2,3.2,0,0,0,2.922,2.064c1.969,0,3.1-1.241,3.1-3.406V16.7h-.087A3.961,3.961,0,0,1,49.4,18.016a5.806,5.806,0,0,1,0-11.6,4.026,4.026,0,0,1,3.054,1.3h.087V6.766h2.418V17.18a6.187,6.187,0,0,1-1.637,4.628A5.426,5.426,0,0,1,49.441,23.223ZM49.618,8.7a3.357,3.357,0,0,0-3.229,3.537,3.333,3.333,0,0,0,3.229,3.493,3.24,3.24,0,0,0,3.1-3.493A3.265,3.265,0,0,0,49.618,8.7Zm59,14.133H105.96l2.59-5.746L104.009,6.758h2.742l3.027,7.391h.087l2.917-7.391h2.83l-7,16.074ZM66.248,18.016a5.707,5.707,0,0,1-4.114-1.681,5.815,5.815,0,0,1-1.642-4.119,5.519,5.519,0,0,1,5.47-5.8c3.411,0,4.735,3.074,4.966,3.691l.263.659-7.753,3.207a2.934,2.934,0,0,0,2.811,1.759,3.294,3.294,0,0,0,2.856-1.6l1.978,1.318A5.784,5.784,0,0,1,66.248,18.016Zm-.2-9.36a3.116,3.116,0,0,0-2.136.957,3.24,3.24,0,0,0-.9,2.424L68.2,9.887A2.25,2.25,0,0,0,66.051,8.656Zm-29.1,9.36a5.834,5.834,0,0,1-4.114-1.648,5.751,5.751,0,0,1-1.708-4.153,5.751,5.751,0,0,1,1.708-4.161,5.981,5.981,0,0,1,8.228,0,5.752,5.752,0,0,1,1.708,4.161,5.751,5.751,0,0,1-1.708,4.153A5.832,5.832,0,0,1,36.95,18.016Zm0-9.316a3.172,3.172,0,0,0-2.3.975,3.611,3.611,0,0,0-.978,2.541,3.282,3.282,0,1,0,6.547,0,3.615,3.615,0,0,0-.977-2.541A3.171,3.171,0,0,0,36.95,8.7Zm-12.7,9.316a5.832,5.832,0,0,1-4.114-1.648,5.745,5.745,0,0,1-1.708-4.152,5.747,5.747,0,0,1,1.708-4.161,5.981,5.981,0,0,1,8.228,0,5.747,5.747,0,0,1,1.708,4.161,5.745,5.745,0,0,1-1.708,4.152A5.832,5.832,0,0,1,24.249,18.016Zm0-9.316a3.171,3.171,0,0,0-2.3.975,3.611,3.611,0,0,0-.978,2.541,3.282,3.282,0,1,0,6.547,0,3.615,3.615,0,0,0-.977-2.541A3.176,3.176,0,0,0,24.249,8.7ZM9.141,18.016a9.152,9.152,0,0,1-6.434-2.642,8.837,8.837,0,0,1,0-12.731A9.152,9.152,0,0,1,9.141,0a8.568,8.568,0,0,1,6.174,2.483L13.578,4.22A6.274,6.274,0,0,0,9.141,2.46a6.373,6.373,0,0,0-4.59,1.916,6.672,6.672,0,0,0,0,9.265,6.377,6.377,0,0,0,4.59,1.915,6,6,0,0,0,4.547-1.8,5.169,5.169,0,0,0,1.339-3.1H9.141V8.2h8.282a8.176,8.176,0,0,1,.131,1.537,8.18,8.18,0,0,1-2.131,5.756A8.255,8.255,0,0,1,9.141,18.016Zm88.9-.028c-2.413,0-4.233-1.613-4.233-3.752a3.387,3.387,0,0,1,1.544-2.856,6.045,6.045,0,0,1,3.37-.982,5.639,5.639,0,0,1,2.654.658v-.177A2.456,2.456,0,0,0,98.7,8.687a2.386,2.386,0,0,0-2.326,1.251l-2.258-.944a4.81,4.81,0,0,1,4.54-2.611,5.539,5.539,0,0,1,3.682,1.224,4.444,4.444,0,0,1,1.495,3.492v6.537h-2.457V16.32h-.088A3.6,3.6,0,0,1,98.042,17.988Zm1.011-5.529c-1.343,0-2.7.563-2.7,1.82,0,1.055,1.223,1.448,1.994,1.448a3.069,3.069,0,0,0,3.028-2.7A4.553,4.553,0,0,0,99.054,12.459Zm-6.649,5.205H89.862V.616h2.543V17.663Zm-13.093,0H76.769V.615h6.1a5.4,5.4,0,0,1,5.592,5.3,5.4,5.4,0,0,1-5.592,5.295H79.312v6.457Zm0-14.674h0V8.833h3.619a2.958,2.958,0,0,0,2.982-2.922A2.957,2.957,0,0,0,82.931,2.99ZM59.261,17.664H56.714V.616h2.547V17.663Z" transform="translate(55.968 23.247)" fill="#fff"/>
      </g>
      <g id="Group_32" data-name="Group 32" transform="translate(13.6 10.18)">
        <path id="Clip_31-2" data-name="Clip 31" d="M.631.1A2.731,2.731,0,0,0,0,2.016H0v30.16A2.722,2.722,0,0,0,.631,34.09h0l.1.1,16.9-16.9v-.4L.731,0Z" transform="translate(0 0)" fill="none"/>
        <g id="Group_32-2" data-name="Group 32" transform="translate(0 0)" clip-path="url(#clip-path-2)">
          <path id="Fill_30" data-name="Fill 30" d="M.631.1A2.731,2.731,0,0,0,0,2.016H0v30.16A2.722,2.722,0,0,0,.631,34.09h0l.1.1,16.9-16.9v-.4L.731,0Z" transform="translate(0)" fill="#00d2ff"/>
        </g>
      </g>
      <g id="Group_35" data-name="Group 35" transform="translate(31.228 21.443)">
        <path id="Clip_34-2" data-name="Clip 34" d="M0,5.633v.4l5.631,5.633.128-.071L12.432,7.8c1.905-1.084,1.905-2.857,0-3.94h0L5.759.072,5.632,0Z" transform="translate(0 0)" fill="none"/>
        <g id="Group_35-2" data-name="Group 35" transform="translate(0 0)" clip-path="url(#clip-path-3)">
          <path id="Fill_33" data-name="Fill 33" d="M0,5.633v.4l5.631,5.633.128-.071L12.432,7.8c1.905-1.084,1.905-2.857,0-3.94h0L5.759.072,5.632,0Z" fill="#ffc802"/>
        </g>
      </g>
      <g id="Group_38" data-name="Group 38" transform="translate(14.232 27.276)">
        <path id="Clip_37-2" data-name="Clip 37" d="M0,16.995c.627.665,1.665.749,2.834.085h0L22.755,5.76,17,0Z" transform="translate(0 0)" fill="none"/>
        <g id="Group_38-2" data-name="Group 38" transform="translate(0 0)" clip-path="url(#clip-path-4)">
          <path id="Fill_36" data-name="Fill 36" d="M0,16.995c.627.665,1.665.749,2.834.085h0L22.755,5.76,17,0Z" fill="url(#linear-gradient)"/>
        </g>
      </g>
      <g id="Group_41" data-name="Group 41" transform="translate(14.232 9.737)">
        <path id="Clip_40-2" data-name="Clip 40" d="M0,.543l17,17,5.759-5.76L2.834.46A3.132,3.132,0,0,0,1.305,0h0A1.741,1.741,0,0,0,0,.543" transform="translate(0 0)" fill="none"/>
        <g id="Group_41-2" data-name="Group 41" transform="translate(0 0)" clip-path="url(#clip-path-5)">
          <path id="Fill_39" data-name="Fill 39" d="M0,.543l17,17,5.759-5.76L2.834.46A3.132,3.132,0,0,0,1.305,0h0A1.741,1.741,0,0,0,0,.543" fill="#00f076"/>
        </g>
      </g>
      <g id="Group_50" data-name="Group 50" transform="translate(13.599 9.737)">
        <path id="Fill_42" data-name="Fill 42" d="M22.628,0,2.834,11.248A2.275,2.275,0,0,1,.1,11.262l-.1.1.1.1h0a2.272,2.272,0,0,0,2.733-.014L22.755.127Z" transform="translate(0.632 23.171)"/>
        <path id="Fill_44" data-name="Fill 44" d="M.631,1.916A2.731,2.731,0,0,1,0,0V.2A2.731,2.731,0,0,0,.631,2.115l.1-.1Z" transform="translate(0 32.419)"/>
        <path id="Fill_46" data-name="Fill 46" d="M6.8,1.769,0,5.632l.127.127L6.8,1.968A2.391,2.391,0,0,0,8.229,0,2.538,2.538,0,0,1,6.8,1.769" transform="translate(23.26 17.539)"/>
        <path id="Fill_48" data-name="Fill 48" d="M3.465.658l26.594,15.11a2.538,2.538,0,0,1,1.429,1.77,2.39,2.39,0,0,0-1.429-1.969L3.465.459C1.559-.624,0,.276,0,2.458v.2C0,.475,1.559-.425,3.465.658" transform="translate(0 0)" fill="#fff"/>
      </g>
    </g>
  </g>
</svg>
