<svg xmlns="http://www.w3.org/2000/svg" width="19.23" height="26.539" viewBox="0 0 19.23 26.539">
  <g id="uzcard" transform="translate(0 0)">
    <g id="uzcard-logo-1" transform="translate(0 0)">
      <path id="Path_217" data-name="Path 217" d="M596-517.317q0,4.91-2.243,7.3t-6.918,2.384q-4.364,0-6.622-2.384t-2.257-7.191v-10.753a.458.458,0,0,1,.457-.457h5.275a.458.458,0,0,1,.457.457v10.987a5.267,5.267,0,0,0,.735,3.026,2.413,2.413,0,0,0,2.107,1.061,2.433,2.433,0,0,0,2.1-1,5,5,0,0,0,.72-2.948v-2.057H596Z" transform="translate(-577.955 528.415)" fill="#fff" fill-rule="evenodd"/>
      <path id="Path_218" data-name="Path 218" d="M712.7-520.089h-5.71v-7.848a.48.48,0,0,1,.478-.478h.854a4.854,4.854,0,0,0,4.855,4.851h0v3.476Z" transform="translate(-695.136 528.415)" fill="#fff" fill-rule="evenodd"/>
      <path id="Path_219" data-name="Path 219" d="M734.747-528.415h3.161a.48.48,0,0,1,.478.478v3.165a3.639,3.639,0,0,1-3.639-3.639Z" transform="translate(-720.346 528.415)" fill="#eb6e00" fill-rule="evenodd"/>
      <path id="Path_220" data-name="Path 220" d="M578.994-268.758a.91.91,0,0,0,1.036-.96v-1.376h-.5v1.363a.5.5,0,0,1-.537.54.5.5,0,0,1-.54-.54v-1.363h-.5v1.38A.91.91,0,0,0,578.994-268.758Zm4.052-.041v-.43h-1.108l1.084-1.473v-.392H581.3v.43h1.084L581.3-269.2v.4Zm2.335.041a1.056,1.056,0,0,0,.96-.564l-.42-.2a.616.616,0,0,1-.54.334.714.714,0,0,1-.719-.753.715.715,0,0,1,.719-.753.622.622,0,0,1,.54.334l.42-.206a1.051,1.051,0,0,0-.96-.561,1.166,1.166,0,0,0-1.222,1.187A1.166,1.166,0,0,0,585.382-268.758Zm4.269-.041-.884-2.295h-.612l-.888,2.295h.557l.144-.389h.984l.141.389Zm-.833-.819H588.1l.358-.987Zm4.13,1.394-.842-1.449a.659.659,0,0,0,.5-.681.715.715,0,0,0-.771-.74h-1.073v2.295h.489v-.815h.358l.777,1.391Zm-1.183-1.821h-.513v-.619h.513a.311.311,0,0,1,.344.31A.312.312,0,0,1,591.765-270.045Zm3.016,1.245A1.122,1.122,0,0,0,596-269.945a1.125,1.125,0,0,0-1.218-1.149h-.9v2.295Zm0-.43h-.416v-1.435h.416a.672.672,0,0,1,.719.719.687.687,0,0,1-.2.517.687.687,0,0,1-.518.2Z" transform="translate(-577.958 294.763)" fill="#fff" fill-rule="evenodd"/>
      <path id="Path_221" data-name="Path 221" d="M778.871-277.1v.005a.427.427,0,0,1-.427.427.427.427,0,0,1-.427-.427.427.427,0,0,1,.427-.427h.427Z" transform="translate(-759.641 300.567)" fill="#fff" fill-rule="evenodd"/>
    </g>
  </g>
</svg>
